<svg width="258" height="270" viewBox="0 0 258 270" fill="none" xmlns="http://www.w3.org/2000/svg">
<g clip-path="url(#clip0_1068_9986)">
<path d="M192.629 97.5304L139.999 150.161L87.3689 97.5304C72.8354 82.9968 72.8354 59.4334 87.3689 44.9002C101.903 30.3666 125.466 30.3666 139.999 44.9002C154.533 30.3666 178.096 30.3666 192.629 44.9002C207.163 59.4334 207.163 82.9968 192.629 97.5304Z" fill="#0009FF"/>
<path d="M234.317 82.4805C227.865 82.4805 222.635 87.7105 222.635 94.1624V138.882C222.635 145.319 220.129 151.371 215.576 155.923L193.405 178.094L184.622 169.311L206.793 147.14C211.346 142.586 211.346 135.177 206.793 130.624C202.239 126.07 194.83 126.07 190.276 130.624L146.211 174.689V246.001H201.152V211.737L246 161.648V94.1624C245.999 87.7105 240.769 82.4805 234.317 82.4805Z" fill="#0009FF"/>
<path d="M73.2063 130.624C68.6529 135.177 68.6529 142.586 73.2063 147.14L95.3773 169.311L86.5938 178.094L64.4228 155.923C59.8706 151.371 57.3639 145.319 57.3639 138.882V94.1624C57.3639 87.7105 52.1339 82.4805 45.6819 82.4805C39.23 82.4805 34 87.7105 34 94.1624V161.648L78.8475 211.737V246.001H133.788V174.689L89.7225 130.624C85.1694 126.07 77.7602 126.07 73.2063 130.624Z" fill="#0009FF"/>
</g>
<defs>
<clipPath id="clip0_1068_9986">
<rect width="212" height="212" fill="white" transform="translate(34 34)"/>
</clipPath>
</defs>
</svg>
