<svg width="23" height="23" viewBox="0 0 23 23" fill="none" xmlns="http://www.w3.org/2000/svg">
<g id="Group 1">
<path id="Vector" d="M22.2207 0.708819L22.2207 7.64062L15.2889 7.64062L15.2889 0.708818L22.2207 0.708819Z" fill="white" stroke="#0009FF"/>
<g id="Clip path group">
<mask id="mask0_781_149" style="mask-type:luminance" maskUnits="userSpaceOnUse" x="14" y="0" width="9" height="9">
<g id="clippath">
<path id="Vector_2" d="M22.2207 0.701006L22.2207 7.63281L15.2889 7.63281L15.2889 0.701006L22.2207 0.701006Z" fill="white" stroke="white"/>
</g>
</mask>
<g mask="url(#mask0_781_149)">
<g id="Group">
<g id="Vector_3">
<mask id="path-3-inside-1_781_149" fill="white">
<path d="M22.5657 0.201619L22.5657 8.13342L22.8712 8.13342L22.8712 0.201619L22.5657 0.201619ZM14.7895 0.357257L22.7213 0.357257L22.7213 0.0517435L14.7895 0.0517428L14.7895 0.357257ZM14.9451 8.13342L14.9451 0.201618L14.6396 0.201618L14.6396 8.13342L14.9451 8.13342ZM22.7213 7.97779L14.7895 7.97779L14.7895 8.2833L22.7213 8.2833L22.7213 7.97779ZM22.7213 0.201619L22.877 0.201619L22.877 0.0459795L22.7213 0.0459795L22.7213 0.201619ZM14.7895 0.201618L14.7895 0.0459788L14.6339 0.0459788L14.6339 0.201618L14.7895 0.201618ZM14.7895 8.13342L14.6339 8.13342L14.6339 8.28906L14.7895 8.28906L14.7895 8.13342ZM22.7213 8.13342L22.7213 8.28906L22.877 8.28906L22.877 8.13342L22.7213 8.13342Z"/>
</mask>
<path d="M22.5657 0.201619L22.5657 8.13342L22.8712 8.13342L22.8712 0.201619L22.5657 0.201619ZM14.7895 0.357257L22.7213 0.357257L22.7213 0.0517435L14.7895 0.0517428L14.7895 0.357257ZM14.9451 8.13342L14.9451 0.201618L14.6396 0.201618L14.6396 8.13342L14.9451 8.13342ZM22.7213 7.97779L14.7895 7.97779L14.7895 8.2833L22.7213 8.2833L22.7213 7.97779ZM22.7213 0.201619L22.877 0.201619L22.877 0.0459795L22.7213 0.0459795L22.7213 0.201619ZM14.7895 0.201618L14.7895 0.0459788L14.6339 0.0459788L14.6339 0.201618L14.7895 0.201618ZM14.7895 8.13342L14.6339 8.13342L14.6339 8.28906L14.7895 8.28906L14.7895 8.13342ZM22.7213 8.13342L22.7213 8.28906L22.877 8.28906L22.877 8.13342L22.7213 8.13342Z" fill="#FFFDFD"/>
<path d="M22.5657 0.201619L22.5657 -0.798381L21.5657 -0.798381L21.5657 0.201619L22.5657 0.201619ZM22.5657 8.13342L21.5657 8.13342L21.5657 9.13342L22.5657 9.13342L22.5657 8.13342ZM22.8712 8.13342L22.8712 9.13342L23.8712 9.13342L23.8712 8.13342L22.8712 8.13342ZM22.8712 0.201619L23.8712 0.201619L23.8712 -0.798381L22.8712 -0.798381L22.8712 0.201619ZM14.7895 0.357257L13.7895 0.357257L13.7895 1.35726L14.7895 1.35726L14.7895 0.357257ZM22.7213 0.357257L22.7213 1.35726L23.7213 1.35726L23.7213 0.357257L22.7213 0.357257ZM22.7213 0.0517435L23.7213 0.0517436L23.7213 -0.948256L22.7213 -0.948257L22.7213 0.0517435ZM14.7895 0.0517428L14.7895 -0.948257L13.7895 -0.948257L13.7895 0.0517427L14.7895 0.0517428ZM14.9451 8.13342L14.9451 9.13342L15.9451 9.13342L15.9451 8.13342L14.9451 8.13342ZM14.9451 0.201618L15.9451 0.201619L15.9451 -0.798381L14.9451 -0.798382L14.9451 0.201618ZM14.6396 0.201618L14.6396 -0.798382L13.6396 -0.798382L13.6396 0.201618L14.6396 0.201618ZM14.6396 8.13342L13.6396 8.13342L13.6396 9.13342L14.6396 9.13342L14.6396 8.13342ZM22.7213 7.97779L23.7213 7.97779L23.7213 6.97779L22.7213 6.97779L22.7213 7.97779ZM14.7895 7.97779L14.7895 6.97779L13.7895 6.97779L13.7895 7.97779L14.7895 7.97779ZM14.7895 8.2833L13.7895 8.2833L13.7895 9.2833L14.7895 9.2833L14.7895 8.2833ZM22.7213 8.2833L22.7213 9.2833L23.7213 9.2833L23.7213 8.2833L22.7213 8.2833ZM22.7213 0.201619L21.7213 0.201619L21.7213 1.20162L22.7213 1.20162L22.7213 0.201619ZM22.877 0.201619L22.877 1.20162L23.877 1.20162L23.877 0.201619L22.877 0.201619ZM22.877 0.0459795L23.877 0.0459796L23.877 -0.95402L22.877 -0.954021L22.877 0.0459795ZM22.7213 0.0459795L22.7213 -0.954021L21.7213 -0.954021L21.7213 0.0459794L22.7213 0.0459795ZM14.7895 0.201618L14.7895 1.20162L15.7895 1.20162L15.7895 0.201619L14.7895 0.201618ZM14.7895 0.0459788L15.7895 0.0459789L15.7895 -0.954021L14.7895 -0.954021L14.7895 0.0459788ZM14.6339 0.0459788L14.6339 -0.954021L13.6339 -0.954021L13.6339 0.0459787L14.6339 0.0459788ZM14.6339 0.201618L13.6339 0.201618L13.6339 1.20162L14.6339 1.20162L14.6339 0.201618ZM14.7895 8.13342L15.7895 8.13342L15.7895 7.13342L14.7895 7.13342L14.7895 8.13342ZM14.6339 8.13342L14.6339 7.13342L13.6339 7.13342L13.6339 8.13342L14.6339 8.13342ZM14.6339 8.28906L13.6339 8.28906L13.6339 9.28906L14.6339 9.28906L14.6339 8.28906ZM14.7895 8.28906L14.7895 9.28906L15.7895 9.28906L15.7895 8.28906L14.7895 8.28906ZM22.7213 8.13342L22.7213 7.13342L21.7213 7.13342L21.7213 8.13342L22.7213 8.13342ZM22.7213 8.28906L21.7213 8.28906L21.7213 9.28906L22.7213 9.28906L22.7213 8.28906ZM22.877 8.28906L22.877 9.28906L23.877 9.28906L23.877 8.28906L22.877 8.28906ZM22.877 8.13342L23.877 8.13342L23.877 7.13342L22.877 7.13342L22.877 8.13342ZM21.5657 0.201619L21.5657 8.13342L23.5657 8.13342L23.5657 0.201619L21.5657 0.201619ZM22.5657 9.13342L22.8712 9.13342L22.8712 7.13342L22.5657 7.13342L22.5657 9.13342ZM23.8712 8.13342L23.8712 0.201619L21.8712 0.201619L21.8712 8.13342L23.8712 8.13342ZM22.8712 -0.798381L22.5657 -0.798381L22.5657 1.20162L22.8712 1.20162L22.8712 -0.798381ZM14.7895 1.35726L22.7213 1.35726L22.7213 -0.642742L14.7895 -0.642743L14.7895 1.35726ZM23.7213 0.357257L23.7213 0.0517436L21.7213 0.0517434L21.7213 0.357257L23.7213 0.357257ZM22.7213 -0.948257L14.7895 -0.948257L14.7895 1.05174L22.7213 1.05174L22.7213 -0.948257ZM13.7895 0.0517427L13.7895 0.357257L15.7895 0.357257L15.7895 0.0517429L13.7895 0.0517427ZM15.9451 8.13342L15.9451 0.201619L13.9451 0.201618L13.9451 8.13342L15.9451 8.13342ZM14.9451 -0.798382L14.6396 -0.798382L14.6396 1.20162L14.9451 1.20162L14.9451 -0.798382ZM13.6396 0.201618L13.6396 8.13342L15.6396 8.13342L15.6396 0.201619L13.6396 0.201618ZM14.6396 9.13342L14.9451 9.13342L14.9451 7.13342L14.6396 7.13342L14.6396 9.13342ZM22.7213 6.97779L14.7895 6.97779L14.7895 8.97779L22.7213 8.97779L22.7213 6.97779ZM13.7895 7.97779L13.7895 8.2833L15.7895 8.2833L15.7895 7.97779L13.7895 7.97779ZM14.7895 9.2833L22.7213 9.2833L22.7213 7.2833L14.7895 7.2833L14.7895 9.2833ZM23.7213 8.2833L23.7213 7.97779L21.7213 7.97779L21.7213 8.2833L23.7213 8.2833ZM22.7213 1.20162L22.877 1.20162L22.877 -0.798381L22.7213 -0.798381L22.7213 1.20162ZM23.877 0.201619L23.877 0.0459796L21.877 0.0459794L21.877 0.201619L23.877 0.201619ZM22.877 -0.954021L22.7213 -0.954021L22.7213 1.04598L22.877 1.04598L22.877 -0.954021ZM21.7213 0.0459794L21.7213 0.201619L23.7213 0.201619L23.7213 0.0459796L21.7213 0.0459794ZM15.7895 0.201619L15.7895 0.0459789L13.7895 0.0459787L13.7895 0.201618L15.7895 0.201619ZM14.7895 -0.954021L14.6339 -0.954021L14.6339 1.04598L14.7895 1.04598L14.7895 -0.954021ZM13.6339 0.0459787L13.6339 0.201618L15.6339 0.201619L15.6339 0.0459789L13.6339 0.0459787ZM14.6339 1.20162L14.7895 1.20162L14.7895 -0.798382L14.6339 -0.798382L14.6339 1.20162ZM14.7895 7.13342L14.6339 7.13342L14.6339 9.13342L14.7895 9.13342L14.7895 7.13342ZM13.6339 8.13342L13.6339 8.28906L15.6339 8.28906L15.6339 8.13342L13.6339 8.13342ZM14.6339 9.28906L14.7895 9.28906L14.7895 7.28906L14.6339 7.28906L14.6339 9.28906ZM15.7895 8.28906L15.7895 8.13342L13.7895 8.13342L13.7895 8.28906L15.7895 8.28906ZM21.7213 8.13342L21.7213 8.28906L23.7213 8.28906L23.7213 8.13342L21.7213 8.13342ZM22.7213 9.28906L22.877 9.28906L22.877 7.28906L22.7213 7.28906L22.7213 9.28906ZM23.877 8.28906L23.877 8.13342L21.877 8.13342L21.877 8.28906L23.877 8.28906ZM22.877 7.13342L22.7213 7.13342L22.7213 9.13342L22.877 9.13342L22.877 7.13342Z" fill="#0009FF" mask="url(#path-3-inside-1_781_149)"/>
</g>
</g>
</g>
</g>
<path id="Vector_4" d="M1.10871 16.6725L8.01594 9.76525L12.8945 9.76525L12.8945 12.9775C12.8945 14.0717 12.458 15.1211 11.6857 15.8988C11.6855 15.8989 11.6854 15.8991 11.6852 15.8993L6.01035 21.5741L1.10871 16.6725Z" fill="white" stroke="#0009FF"/>
<g id="Clip path group_2">
<g id="Group_2">
<g id="Vector_5">
<mask id="path-6-inside-2_781_149" fill="white">
<path d="M6.11852 22.1636L0.509754 16.5549L0.290721 16.7739L5.89947 22.3827L6.11852 22.1636ZM11.929 16.1341L5.89947 22.1636L6.11852 22.3827L12.1481 16.3531L11.929 16.1341ZM13.2375 12.9694C13.2375 14.1569 12.7649 15.2925 11.929 16.1341L12.1481 16.3531C13.0473 15.4539 13.5488 14.2433 13.5488 12.9752L13.2433 12.9752L13.2375 12.9694ZM13.2375 9.25714L13.2375 12.9694L13.5431 12.9694L13.5431 9.25714L13.2375 9.25714ZM7.80173 9.41278L13.3874 9.41278L13.3874 9.10727L7.80173 9.10726L7.80173 9.41278ZM0.509754 16.7739L7.917 9.36666L7.69795 9.14762L0.290721 16.5491L0.509754 16.7681L0.509754 16.7739ZM6.00899 22.2731L5.89947 22.3827L6.00899 22.4922L6.11852 22.3827L6.00899 22.2731ZM13.3932 9.25714L13.5488 9.25714L13.5488 9.1015L13.3932 9.1015L13.3932 9.25714ZM7.80173 9.25714L7.80173 9.1015L7.73831 9.1015L7.6922 9.14762L7.80173 9.25714ZM0.400246 16.6644L0.290721 16.5549L0.181197 16.6644L0.290721 16.7739L0.400246 16.6644Z"/>
</mask>
<path d="M6.11852 22.1636L0.509754 16.5549L0.290721 16.7739L5.89947 22.3827L6.11852 22.1636ZM11.929 16.1341L5.89947 22.1636L6.11852 22.3827L12.1481 16.3531L11.929 16.1341ZM13.2375 12.9694C13.2375 14.1569 12.7649 15.2925 11.929 16.1341L12.1481 16.3531C13.0473 15.4539 13.5488 14.2433 13.5488 12.9752L13.2433 12.9752L13.2375 12.9694ZM13.2375 9.25714L13.2375 12.9694L13.5431 12.9694L13.5431 9.25714L13.2375 9.25714ZM7.80173 9.41278L13.3874 9.41278L13.3874 9.10727L7.80173 9.10726L7.80173 9.41278ZM0.509754 16.7739L7.917 9.36666L7.69795 9.14762L0.290721 16.5491L0.509754 16.7681L0.509754 16.7739ZM6.00899 22.2731L5.89947 22.3827L6.00899 22.4922L6.11852 22.3827L6.00899 22.2731ZM13.3932 9.25714L13.5488 9.25714L13.5488 9.1015L13.3932 9.1015L13.3932 9.25714ZM7.80173 9.25714L7.80173 9.1015L7.73831 9.1015L7.6922 9.14762L7.80173 9.25714ZM0.400246 16.6644L0.290721 16.5549L0.181197 16.6644L0.290721 16.7739L0.400246 16.6644Z" fill="#FFFDFD"/>
<path d="M12.1481 16.3531L11.7945 16.7067L12.5016 15.9996L12.1481 16.3531ZM12.5016 15.9996L12.2826 15.7805L11.5755 16.4876L11.7945 16.7067L12.5016 15.9996ZM11.685 16.5971L11.7945 16.7067L12.5016 15.9996L12.3921 15.89L11.685 16.5971ZM6.11852 22.1636L6.82562 22.8707L7.53273 22.1636L6.82562 21.4565L6.11852 22.1636ZM0.509754 16.5549L1.21686 15.8478L0.509729 15.1406L-0.197377 15.8478L0.509754 16.5549ZM5.89947 22.3827L5.19236 23.0898L5.19236 23.0898L5.89947 22.3827ZM11.929 16.1341L12.6361 16.8412L12.6386 16.8387L11.929 16.1341ZM5.89947 22.1636L5.19236 21.4565L4.48525 22.1636L5.19236 22.8707L5.89947 22.1636ZM6.11852 22.3827L6.82562 23.0898L6.82562 23.0898L6.11852 22.3827ZM12.1481 16.3531L11.441 15.646L11.441 15.646L12.1481 16.3531ZM13.5488 12.9752L14.5488 12.9752L14.5488 11.9752L13.5488 11.9752L13.5488 12.9752ZM13.2433 12.9752L12.5365 13.6826L12.8294 13.9752L13.2433 13.9752L13.2433 12.9752ZM13.2375 9.25714L13.2375 8.25714L12.2375 8.25714L12.2375 9.25714L13.2375 9.25714ZM13.5431 12.9694L13.5431 13.9694L14.5431 13.9694L14.5431 12.9694L13.5431 12.9694ZM13.5431 9.25714L14.5431 9.25714L14.5431 8.25714L13.5431 8.25714L13.5431 9.25714ZM7.80173 9.41278L6.80173 9.41278L6.80173 10.4128L7.80173 10.4128L7.80173 9.41278ZM13.3874 9.41278L13.3874 10.4128L14.3874 10.4128L14.3874 9.41278L13.3874 9.41278ZM13.3874 9.10727L14.3874 9.10727L14.3874 8.10727L13.3874 8.10727L13.3874 9.10727ZM7.80173 9.10726L7.80173 8.10726L6.80173 8.10726L6.80173 9.10726L7.80173 9.10726ZM0.509754 16.7739L-0.490246 16.7739L-0.490246 19.1881L1.21686 17.481L0.509754 16.7739ZM7.917 9.36666L8.62411 10.0738L9.33122 9.36666L8.62411 8.65955L7.917 9.36666ZM7.69795 9.14762L8.40506 8.4405L7.69822 7.73368L6.99112 8.44024L7.69795 9.14762ZM0.290721 16.5491L-0.41611 15.8417L-1.12374 16.5488L-0.416409 17.2562L0.290721 16.5491ZM0.509754 16.7681L1.50975 16.7681L1.50975 16.354L1.21688 16.0611L0.509754 16.7681ZM6.00899 22.2731L6.71609 21.566L6.00899 20.8589L5.30189 21.566L6.00899 22.2731ZM6.00899 22.4922L5.30189 23.1993L6.00899 23.9064L6.71609 23.1993L6.00899 22.4922ZM13.3932 9.25714L12.3932 9.25714L12.3932 10.2571L13.3932 10.2571L13.3932 9.25714ZM13.5488 9.25714L13.5488 10.2571L14.5488 10.2571L14.5488 9.25714L13.5488 9.25714ZM13.5488 9.1015L14.5488 9.1015L14.5488 8.1015L13.5488 8.1015L13.5488 9.1015ZM13.3932 9.1015L13.3932 8.1015L12.3932 8.1015L12.3932 9.1015L13.3932 9.1015ZM7.80173 9.25714L7.09463 9.96425L8.80173 11.6713L8.80173 9.25714L7.80173 9.25714ZM7.80173 9.1015L8.80173 9.1015L8.80173 8.1015L7.80173 8.1015L7.80173 9.1015ZM7.73831 9.1015L7.73831 8.1015L7.32404 8.1015L7.03114 8.39446L7.73831 9.1015ZM7.6922 9.14762L6.98503 8.44058L6.27805 9.14769L6.9851 9.85473L7.6922 9.14762ZM0.400246 16.6644L1.10735 17.3715L1.81447 16.6644L1.10735 15.9573L0.400246 16.6644ZM0.290721 16.5549L0.997823 15.8477L0.290722 15.1407L-0.416379 15.8477L0.290721 16.5549ZM0.181197 16.6644L-0.525905 15.9573L-1.23303 16.6644L-0.525907 17.3715L0.181197 16.6644ZM6.82562 21.4565L1.21686 15.8478L-0.197353 17.262L5.41141 22.8707L6.82562 21.4565ZM-0.197377 15.8478L-0.416409 16.0668L0.997852 17.481L1.21688 17.2619L-0.197377 15.8478ZM-0.416386 17.481L5.19236 23.0898L6.60657 21.6756L0.997829 16.0668L-0.416386 17.481ZM6.60657 23.0898L6.82562 22.8707L5.41141 21.4565L5.19236 21.6756L6.60657 23.0898ZM11.2219 15.427L5.19236 21.4565L6.60657 22.8707L12.6361 16.8412L11.2219 15.427ZM5.19236 22.8707L5.41141 23.0898L6.82562 21.6756L6.60657 21.4565L5.19236 22.8707ZM6.82562 23.0898L12.8552 17.0602L11.441 15.646L5.41141 21.6756L6.82562 23.0898ZM12.2375 12.9694C12.2375 13.8904 11.871 14.7734 11.2195 15.4294L12.6386 16.8387C13.6587 15.8116 14.2375 14.4234 14.2375 12.9694L12.2375 12.9694ZM12.8552 17.0602C13.9416 15.9738 14.5488 14.509 14.5488 12.9752L12.5488 12.9752C12.5488 13.9777 12.153 14.934 11.441 15.646L12.8552 17.0602ZM13.5488 11.9752L13.2433 11.9752L13.2433 13.9752L13.5488 13.9752L13.5488 11.9752ZM13.9501 12.2677L13.9443 12.262L12.5308 13.6769L12.5365 13.6826L13.9501 12.2677ZM12.2375 9.25714L12.2375 12.9694L14.2375 12.9694L14.2375 9.25714L12.2375 9.25714ZM13.2375 13.9694L13.5431 13.9694L13.5431 11.9694L13.2375 11.9694L13.2375 13.9694ZM14.5431 12.9694L14.5431 9.25714L12.5431 9.25714L12.5431 12.9694L14.5431 12.9694ZM13.5431 8.25714L13.2375 8.25714L13.2375 10.2571L13.5431 10.2571L13.5431 8.25714ZM7.80173 10.4128L13.3874 10.4128L13.3874 8.41278L7.80173 8.41278L7.80173 10.4128ZM14.3874 9.41278L14.3874 9.10727L12.3874 9.10727L12.3874 9.41278L14.3874 9.41278ZM13.3874 8.10727L7.80173 8.10726L7.80173 10.1073L13.3874 10.1073L13.3874 8.10727ZM6.80173 9.10726L6.80173 9.41278L8.80173 9.41278L8.80173 9.10727L6.80173 9.10726ZM1.21686 17.481L8.62411 10.0738L7.2099 8.65956L-0.197353 16.0668L1.21686 17.481ZM8.62411 8.65955L8.40506 8.4405L6.99085 9.85473L7.2099 10.0738L8.62411 8.65955ZM6.99112 8.44024L-0.41611 15.8417L0.997553 17.2565L8.40479 9.855L6.99112 8.44024ZM-0.416409 17.2562L-0.197377 17.4752L1.21688 16.0611L0.997852 15.842L-0.416409 17.2562ZM-0.490246 16.7681L-0.490246 16.7739L1.50975 16.7739L1.50975 16.7681L-0.490246 16.7681ZM5.30189 21.566L5.19236 21.6756L6.60657 23.0898L6.71609 22.9803L5.30189 21.566ZM5.19236 23.0898L5.30189 23.1993L6.71609 21.7851L6.60657 21.6756L5.19236 23.0898ZM6.71609 23.1993L6.82562 23.0898L5.41141 21.6756L5.30189 21.7851L6.71609 23.1993ZM6.82562 21.6756L6.71609 21.566L5.30189 22.9803L5.41141 23.0898L6.82562 21.6756ZM13.3932 10.2571L13.5488 10.2571L13.5488 8.25714L13.3932 8.25714L13.3932 10.2571ZM14.5488 9.25714L14.5488 9.1015L12.5488 9.1015L12.5488 9.25714L14.5488 9.25714ZM13.5488 8.1015L13.3932 8.1015L13.3932 10.1015L13.5488 10.1015L13.5488 8.1015ZM12.3932 9.1015L12.3932 9.25714L14.3932 9.25714L14.3932 9.1015L12.3932 9.1015ZM8.80173 9.25714L8.80173 9.1015L6.80173 9.1015L6.80173 9.25714L8.80173 9.25714ZM7.80173 8.1015L7.73831 8.1015L7.73831 10.1015L7.80173 10.1015L7.80173 8.1015ZM7.03114 8.39446L6.98503 8.44058L8.39938 9.85466L8.44548 9.80854L7.03114 8.39446ZM6.9851 9.85473L7.09463 9.96425L8.50883 8.55003L8.3993 8.4405L6.9851 9.85473ZM1.10735 15.9573L0.997823 15.8477L-0.416379 17.262L-0.306855 17.3715L1.10735 15.9573ZM-0.416379 15.8477L-0.525905 15.9573L0.888298 17.3715L0.997823 17.262L-0.416379 15.8477ZM-0.525907 17.3715L-0.416381 17.481L0.997824 16.0668L0.8883 15.9573L-0.525907 17.3715ZM0.997824 17.481L1.10735 17.3715L-0.306857 15.9573L-0.416381 16.0668L0.997824 17.481Z" fill="#0009FF" mask="url(#path-6-inside-2_781_149)"/>
</g>
</g>
</g>
<path id="Vector_6" d="M15.3533 21.8047L15.3533 9.78292L18.1564 9.78292C20.4342 9.78292 22.2852 11.6289 22.2852 13.9117L22.2852 21.8047L15.3533 21.8047Z" fill="white" stroke="#0009FF"/>
<path id="Vector_7" d="M0.884486 7.64062L0.884487 0.708818L9.0426 0.708819C11.176 0.708819 12.9063 2.43909 12.9063 4.57246L12.9063 7.64062L0.884486 7.64062Z" fill="white" stroke="#0009FF"/>
</g>
</svg>
