<?xml version="1.0" encoding="utf-8"?>
<!-- Generator: Adobe Illustrator 28.6.0, SVG Export Plug-In . SVG Version: 9.03 Build 54939)  -->
<svg version="1.1" baseProfile="basic" id="Layer_1"
	 xmlns="http://www.w3.org/2000/svg" xmlns:xlink="http://www.w3.org/1999/xlink" x="0px" y="0px" viewBox="0 0 1267.937 1662.813"
	 xml:space="preserve">
<style type="text/css">
	.st0{fill:#0009FF;}
</style>
<path class="st0" d="M1125.468,978.051c0,3.8,0,7.1,0.01,10.41c0.15,113.99,0.3,227.99,0.44,341.98c0.01,6.52-0.03,6.52-6.64,6.5
	c-40.83-0.07-81.66-0.22-122.48-0.08c-4.48,0.02-5.95-1.66-7.06-5.53c-4.37-15.26-8.98-30.46-13.58-45.66
	c-7.13-23.54-14.38-47.05-21.46-70.6c-7.84-26.08-15.45-52.23-23.35-78.29c-3.77-12.47-7.86-24.84-11.78-37.27
	c-1.02-3.22-2.02-6.44-3-9.66c-1.59-5.23-3.14-10.47-4.68-15.72c-3.6-12.28-7.12-24.59-10.85-36.84
	c-6.51-21.32-13.08-42.62-19.65-63.92c-4.83-15.66-9.66-31.31-14.46-46.98c-4.1-13.37-8-26.79-12.05-40.17
	c-7.74-25.64-15.56-51.26-23.28-76.9c-4.22-14.01-8.4-28.03-12.59-42.04l-29.76-98.32c-0.08-0.01-0.15-0.02-0.23-0.03
	c-43.61-144.32-87.22-288.64-130.83-432.96c-0.45-0.04-0.89-0.08-1.34-0.13c-50.94,249.84-101.89,499.68-152.84,749.52
	c-0.36-0.03-0.72-0.07-1.08-0.1c-28.92-84.83-57.83-169.67-86.97-255.19c-0.67,1.44-1.19,2.25-1.44,3.13
	c-2.31,8.35-4.69,16.67-6.82,25.06c-5.24,20.64-10.29,41.32-15.52,61.96c-5.31,20.94-10.87,41.82-16.07,62.78
	c-4.52,18.24-8.62,36.58-13.04,54.84c-5.49,22.65-11.16,45.24-16.66,67.89c-6.95,28.63-13.71,57.32-20.75,85.93
	c-4.49,18.25-9.51,36.37-14.01,54.61c-4.23,17.11-8.18,34.28-12.03,51.47c-0.89,3.99-2.69,5.14-6.76,5.11
	c-8.64-0.04-17.28-0.07-25.92-0.08h-3.87c-9.84-0.01-19.68-0.01-29.51,0h-37.88c-6.64-0.14-6.76-1.2-7.73-9.6
	c-0.22,1.08-0.34,2.19-0.2,3.26c0.68,4.95-1.58,6.34-6.29,6.09c-6.48-0.35-13,0.19-19.49-0.1c-1.4-0.06-2.48,0.04-3.31,0.35H-0.002
	l-0.1,460.04h164.55c37.17-0.06,74.33-0.14,111.5-0.13c86.49,0.02,172.99,0.08,259.49,0.13h5.39c0.25-3.12,0.56-5.9,0.66-8.68
	c0.28-8.62,1.43-16.84,7.51-23.74c1.26-1.43,1.37-4.38,1.16-6.55c-4.83-50.07-9.94-100.12-14.65-150.21
	c-3.59-38.14-6.71-76.32-10.05-114.49c-0.64-7.24-1.39-14.48-2.07-21.63c-2.86-0.28-5.22-0.51-7.59-0.74
	c4.63-60.11,9.21-119.58,13.9-180.37c-14.53,9.58-29.06,14.95-44.18,18.14c-37.06,7.82-74.05,7.67-110.43-3.9
	c-14.83-4.71-20.29-22.41-12.93-33.25c6.17-9.1,14.91-13.26,25.47-13.05c27.15,0.56,54.16-0.53,79.7-10.57
	c18.86-7.42,37.1-16.44,55.52-24.94c16.69-7.7,33.68-14.3,52.02-16.97c27.53-4,55.14-3.89,82.77-1.61
	c18.31,1.51,36.18,5.2,53.57,11.37c16.12,5.72,32.22,11.73,48.74,15.99c26.12,6.74,52.72,6.85,79.34,2.42
	c7.53-1.26,15.15-2.84,22.72-2.76c11.93,0.13,20.95,8.57,22.95,19.9c2.07,11.76-2.85,21-14.74,25.65
	c-11.75,4.61-23.68,8.86-35.78,12.44c-34.88,10.29-69.98,12.59-105.18,1.35c-4.8-1.53-9.47-3.44-14.91-5.43
	c0.37,4.4,0.7,8,0.98,11.61c4.34,55.63,8.66,111.25,12.99,166.88c0.55,7.07,0.55,7.07-6.56,7.78c-0.18,1.04-0.44,2.14-0.54,3.26
	c-3.2,34.16-6.35,68.32-9.58,102.47c-2.71,28.67-5.34,57.35-8.3,85.99c-3.29,31.79-6.94,63.54-10.32,95.32
	c-0.18,1.68,0.22,3.87,1.22,5.14c5.63,7.23,7.6,15.36,7.03,24.35c-0.17,2.77,0.21,5.57,0.35,8.67h566.319v-684.6H1125.468z
	 M682.358,1014.641c-8.46,15.59-19.43,29.47-36.91,36.39c-25.85,10.23-53.56,3.61-71.66-17.44c-14.67-17.07-24.48-36.12-23.02-59.42
	c1-16.12,6.76-30.06,19.39-40.7c0.78-0.66,1.59-1.84,1.59-2.77c0.01-10.08,5.94-17,13.12-22.53c17.51-13.5,37.24-16.1,58.11-9.53
	c5.8,1.83,11.24,4.93,16.67,7.79c13.75,7.24,26.78,3.67,39.63-2.44c2.81-1.34,5.35-3.27,8.77-5.41
	c0.15,22.41-6.11,41.46-22.07,56.84C694.088,975.751,692.558,995.851,682.358,1014.641z"/>
<path class="st0" d="M628.506,1485.104c-1.171-24.939-2.046-49.892-3.006-74.841c-0.094-2.437-0.524-4.741-3.505-3.884
	c-1.293,0.372-2.87,2.44-2.965,3.831c-0.457,6.639-0.257,13.321-0.64,19.967c-1.819,31.597-3.758,63.187-5.642,94.781
	c-1.884,31.583-4.075,63.152-5.483,94.756c-0.632,14.176,0.317,28.422,0.553,42.907c9.58,0,17.681,0,26.247,0
	c0.783-8.495,2.368-16.924,2.168-25.31c-0.431-18.133-1.802-36.244-2.742-54.366
	C631.799,1550.332,630.037,1517.723,628.506,1485.104z"/>
</svg>
