<?xml version="1.0" encoding="UTF-8"?>
<svg id="Layer_2" xmlns="http://www.w3.org/2000/svg" viewBox="0 0 364.78 178.46">
  <defs>
    <style>
      .cls-1 {
        fill: #b99b5f;
      }

      .cls-2 {
        fill: #04436f;
      }
    </style>
  </defs>
  <g id="Elements">
    <g>
      <path class="cls-2" d="M297.73,23.98c7.55-3.98,16.41-5.96,26.59-5.96,6.15,0,11.93.6,17.4,1.82,5.44,1.25,13.02,3.91,20.13,6.98V7.84c-11.87-4.38-24.43-6.56-37.71-6.56s-25.39,2.73-35.68,8.18c-10.31,5.47-18.28,13.15-23.93,23.1-5.62,9.92-8.46,21.41-8.46,34.4s2.84,24.95,8.46,35.13c5.65,10.18,13.59,18.05,23.83,23.64,10.23,5.57,22.06,8.36,35.42,8.36,8.33,0,15.89-.78,22.63-2.29,4.77-1.09,9.9-2.79,15.44-5.13v-19.43c-6.88,3.8-13.18,6.43-18.93,7.89-5.78,1.48-12.21,2.21-19.32,2.21-9.56,0-18.07-1.95-25.47-5.89-7.42-3.93-13.23-9.66-17.4-17.19-4.17-7.55-6.25-16.67-6.25-27.32,0-10.05,1.98-18.75,5.96-26.04,3.98-7.29,9.77-12.94,17.29-16.93Z"/>
      <g>
        <path class="cls-2" d="M0,146.56h12.73c2.13,0,4.08.43,5.84,1.28,1.76.85,3.16,2.05,4.18,3.58,1.02,1.54,1.53,3.26,1.53,5.18s-.51,3.64-1.53,5.18c-1.02,1.54-2.41,2.73-4.18,3.58-1.76.85-3.71,1.28-5.84,1.28H3.56v11.27H0v-31.35ZM12.09,163.26c2.59,0,4.66-.59,6.23-1.78,1.57-1.19,2.35-2.81,2.35-4.88s-.78-3.7-2.35-4.88c-1.57-1.19-3.64-1.78-6.23-1.78H3.56v13.33h8.53Z"/>
        <path class="cls-2" d="M35.55,155.16c1.61-.93,3.5-1.39,5.66-1.39v3.06c-1.76,0-3.34.34-4.72,1-1.38.67-2.46,1.61-3.24,2.81-.78,1.2-1.16,2.56-1.16,4.08v13.19h-3.42v-23.59h3.42v4.61c.7-1.58,1.86-2.84,3.47-3.77Z"/>
        <path class="cls-2" d="M45.11,149.34c-.44-.46-.66-.99-.66-1.6s.22-1.13.66-1.57c.44-.44.98-.66,1.62-.66s1.13.22,1.57.66c.44.44.66.97.66,1.57s-.22,1.14-.66,1.6c-.44.46-.97.68-1.57.68-.64,0-1.18-.23-1.62-.68ZM45,154.32h3.42v23.59h-3.42v-23.59Z"/>
        <path class="cls-2" d="M84.25,154.93c1.28.78,2.27,1.86,2.99,3.24.71,1.38,1.07,2.96,1.07,4.72v15.02h-3.42v-14.56c0-1.92-.51-3.48-1.53-4.7-1.02-1.22-2.32-1.83-3.9-1.83-1.89,0-3.42.57-4.61,1.71-1.19,1.14-1.78,2.59-1.78,4.36v15.02h-3.42v-14.56c0-1.92-.51-3.48-1.53-4.7-1.02-1.22-2.32-1.83-3.9-1.83-1.89,0-3.42.57-4.61,1.71-1.19,1.14-1.78,2.59-1.78,4.36v15.02h-3.42v-23.59h3.42v3.47c.61-1.25,1.51-2.23,2.72-2.94,1.2-.71,2.58-1.07,4.13-1.07,1.76,0,3.32.45,4.66,1.35,1.34.9,2.33,2.12,2.97,3.67.49-1.52,1.43-2.74,2.83-3.65,1.4-.91,3-1.37,4.79-1.37,1.61,0,3.06.39,4.34,1.16Z"/>
        <path class="cls-2" d="M109.19,174.58c1.41-.55,2.49-1.22,3.22-2.01l2.1,2.24c-1,1.1-2.41,1.98-4.22,2.65-1.81.67-3.57,1-5.27,1-2.1,0-4.06-.53-5.89-1.6-1.83-1.06-3.29-2.55-4.4-4.45-1.11-1.9-1.67-4.02-1.67-6.37s.52-4.37,1.57-6.25c1.05-1.89,2.46-3.36,4.24-4.43,1.78-1.06,3.72-1.6,5.82-1.6,3.53,0,6.28,1.23,8.24,3.7,1.96,2.46,2.94,5.78,2.94,9.95h-19.3c.24,2.34,1.13,4.26,2.67,5.75,1.54,1.49,3.45,2.24,5.73,2.24,1.4,0,2.81-.27,4.22-.82ZM99.35,158.9c-1.52,1.38-2.43,3.2-2.74,5.45h15.88c-.24-2.25-1.02-4.07-2.33-5.45-1.31-1.38-3.09-2.08-5.34-2.08-2.13,0-3.96.69-5.48,2.08Z"/>
        <path class="cls-2" d="M158.64,146.56v31.35h-3.56v-14.28h-18.48v14.28h-3.56v-31.35h3.56v13.69h18.48v-13.69h3.56Z"/>
        <path class="cls-2" d="M169.68,176.77c-1.89-1.13-3.39-2.64-4.5-4.54-1.11-1.9-1.67-3.95-1.67-6.14s.55-4.23,1.67-6.12c1.11-1.89,2.61-3.39,4.5-4.52,1.89-1.13,3.91-1.69,6.07-1.69s4.18.56,6.05,1.69c1.87,1.13,3.36,2.63,4.47,4.52,1.11,1.89,1.67,3.92,1.67,6.12s-.56,4.24-1.67,6.14c-1.11,1.9-2.6,3.42-4.47,4.54-1.87,1.13-3.89,1.69-6.05,1.69s-4.18-.56-6.07-1.69ZM180.02,174.12c1.32-.85,2.37-1.99,3.15-3.4.78-1.41,1.16-2.96,1.16-4.63s-.39-3.18-1.16-4.61c-.78-1.43-1.83-2.56-3.15-3.4-1.32-.84-2.75-1.26-4.27-1.26s-2.99.42-4.31,1.26c-1.32.84-2.37,1.97-3.15,3.4-.78,1.43-1.16,2.97-1.16,4.61s.39,3.22,1.16,4.63c.78,1.41,1.83,2.55,3.15,3.4,1.32.85,2.76,1.28,4.31,1.28s2.94-.43,4.27-1.28Z"/>
        <path class="cls-2" d="M222.53,154.93c1.28.78,2.27,1.86,2.99,3.24.71,1.38,1.07,2.96,1.07,4.72v15.02h-3.42v-14.56c0-1.92-.51-3.48-1.53-4.7-1.02-1.22-2.32-1.83-3.9-1.83-1.89,0-3.42.57-4.61,1.71-1.19,1.14-1.78,2.59-1.78,4.36v15.02h-3.42v-14.56c0-1.92-.51-3.48-1.53-4.7-1.02-1.22-2.32-1.83-3.9-1.83-1.89,0-3.42.57-4.61,1.71-1.19,1.14-1.78,2.59-1.78,4.36v15.02h-3.42v-23.59h3.42v3.47c.61-1.25,1.51-2.23,2.72-2.94,1.2-.71,2.58-1.07,4.13-1.07,1.76,0,3.32.45,4.66,1.35,1.34.9,2.33,2.12,2.97,3.67.49-1.52,1.43-2.74,2.83-3.65,1.4-.91,3-1.37,4.79-1.37,1.61,0,3.06.39,4.34,1.16Z"/>
        <path class="cls-2" d="M247.47,174.58c1.41-.55,2.49-1.22,3.22-2.01l2.1,2.24c-1,1.1-2.41,1.98-4.22,2.65-1.81.67-3.57,1-5.27,1-2.1,0-4.06-.53-5.89-1.6-1.83-1.06-3.29-2.55-4.4-4.45-1.11-1.9-1.67-4.02-1.67-6.37s.52-4.37,1.57-6.25c1.05-1.89,2.46-3.36,4.24-4.43,1.78-1.06,3.72-1.6,5.82-1.6,3.53,0,6.28,1.23,8.24,3.7,1.96,2.46,2.94,5.78,2.94,9.95h-19.3c.24,2.34,1.13,4.26,2.67,5.75,1.54,1.49,3.45,2.24,5.73,2.24,1.4,0,2.81-.27,4.22-.82ZM237.64,158.9c-1.52,1.38-2.43,3.2-2.74,5.45h15.88c-.24-2.25-1.02-4.07-2.33-5.45-1.31-1.38-3.09-2.08-5.34-2.08-2.13,0-3.96.69-5.48,2.08Z"/>
        <path class="cls-2" d="M278.18,176.25c-2.48-1.48-4.45-3.46-5.91-5.96-1.46-2.49-2.19-5.19-2.19-8.08s.73-5.57,2.19-8.06c1.46-2.48,3.43-4.46,5.91-5.93,2.48-1.48,5.13-2.21,7.96-2.21,2.13,0,4.17.42,6.12,1.25,1.95.84,3.67,2.02,5.16,3.54l-2.42,2.46c-1.16-1.25-2.5-2.22-4.04-2.92-1.54-.7-3.14-1.05-4.81-1.05-2.22,0-4.28.59-6.18,1.76-1.9,1.17-3.42,2.75-4.56,4.75-1.14,1.99-1.71,4.13-1.71,6.41s.57,4.46,1.71,6.44c1.14,1.98,2.66,3.56,4.56,4.75,1.9,1.19,3.96,1.78,6.18,1.78,1.67,0,3.28-.35,4.81-1.05,1.54-.7,2.88-1.67,4.04-2.92l2.42,2.46c-1.49,1.49-3.21,2.66-5.16,3.51-1.95.85-3.99,1.28-6.12,1.28-2.83,0-5.48-.74-7.96-2.21Z"/>
        <path class="cls-2" d="M318.03,156.44c1.63,1.78,2.44,4.15,2.44,7.1v14.38h-3.42v-3.7c-.82,1.34-2,2.38-3.54,3.13-1.54.75-3.13,1.12-4.77,1.12-2.53,0-4.59-.68-6.21-2.05-1.61-1.37-2.42-3.19-2.42-5.48,0-1.52.42-2.88,1.25-4.08.84-1.2,1.96-2.13,3.38-2.78,1.41-.65,2.96-.98,4.63-.98,2.37,0,4.93.44,7.67,1.32v-.87c0-1.92-.49-3.54-1.46-4.86-.97-1.32-2.62-1.99-4.93-1.99-1.07,0-2.15.19-3.26.57-1.11.38-2.32.91-3.63,1.57l-1.37-2.78c3.04-1.52,5.87-2.28,8.49-2.28,3.13,0,5.51.89,7.14,2.67ZM314.15,174.15c1.51-.87,2.47-2.08,2.9-3.63v-3.61c-2.31-.64-4.69-.96-7.12-.96-1.8,0-3.32.46-4.59,1.37-1.26.91-1.89,2.07-1.89,3.47s.55,2.56,1.67,3.4c1.11.84,2.52,1.26,4.22,1.26s3.31-.43,4.81-1.3Z"/>
        <path class="cls-2" d="M333.75,155.16c1.61-.93,3.5-1.39,5.66-1.39v3.06c-1.76,0-3.34.34-4.72,1-1.38.67-2.46,1.61-3.24,2.81-.78,1.2-1.16,2.56-1.16,4.08v13.19h-3.42v-23.59h3.42v4.61c.7-1.58,1.86-2.84,3.47-3.77Z"/>
        <path class="cls-2" d="M358.1,174.58c1.41-.55,2.49-1.22,3.22-2.01l2.1,2.24c-1,1.1-2.41,1.98-4.22,2.65-1.81.67-3.57,1-5.27,1-2.1,0-4.06-.53-5.89-1.6-1.83-1.06-3.29-2.55-4.4-4.45-1.11-1.9-1.67-4.02-1.67-6.37s.52-4.37,1.57-6.25c1.05-1.89,2.46-3.36,4.24-4.43,1.78-1.06,3.72-1.6,5.82-1.6,3.53,0,6.28,1.23,8.24,3.7,1.96,2.46,2.94,5.78,2.94,9.95h-19.3c.24,2.34,1.13,4.26,2.67,5.75,1.54,1.49,3.45,2.24,5.73,2.24,1.4,0,2.81-.27,4.22-.82ZM348.26,158.9c-1.52,1.38-2.43,3.2-2.74,5.45h15.88c-.24-2.25-1.02-4.07-2.33-5.45-1.31-1.38-3.09-2.08-5.34-2.08-2.13,0-3.96.69-5.48,2.08Z"/>
      </g>
      <g>
        <g>
          <path class="cls-2" d="M92.24,20.26c-4.01-6.51-9.56-11.51-16.69-15-7.14-3.52-15.36-5.26-24.74-5.26H1.48v131.25h18.02v-45.75h31.3c9.37,0,17.66-1.74,24.84-5.23,7.19-3.52,12.73-8.46,16.67-14.92,3.96-6.43,5.91-13.96,5.91-22.58s-2.01-16.02-5.99-22.5ZM53.98,69.61H19.5V16.09h34.48c14.79,0,26.74,11.98,26.74,26.77s-11.95,26.74-26.74,26.74Z"/>
          <path class="cls-2" d="M214,0v131.25h18.02V0h-18.02ZM118.94,0v131.25h18.02V0h-18.02Z"/>
        </g>
        <path class="cls-1" d="M247.8,76.78l-71.86-29.21c-.3-.11-.63-.11-.92,0l-71.86,29.21c-.67.25-1.01.99-.76,1.66l2.83,7.77c.25.68,1.01,1.03,1.69.77l68.11-21.44c.3-.11.63-.11.92,0l68.11,21.44c.68.26,1.44-.09,1.69-.77l2.83-7.77c.24-.67-.1-1.41-.76-1.66Z"/>
      </g>
    </g>
  </g>
</svg>