<svg width="103" height="32" viewBox="0 0 103 32" fill="none" xmlns="http://www.w3.org/2000/svg">
<g clip-path="url(#clip0_1626_3266)">
<path d="M27.7518 25.929C27 30.0682 23.1419 30.4947 19.6466 30.4947H8.03283C4.47154 30.4947 1.59612 27.5887 1.59612 23.9894V10.7988C1.59612 9.64575 1.2334 2.84717 6.02136 2.84717C6.37089 2.84717 6.68745 2.94715 6.93806 3.07379C7.22164 3.21376 7.47225 3.41372 7.68989 3.63367L16.2831 12.3252L27.0066 23.1029C27.0923 23.1829 27.3693 23.5629 27.4287 23.6628C27.6265 23.9828 27.9826 24.7026 27.7584 25.929H27.7518Z" fill="#07314C"/>
<path d="M102.209 26.5222C102.189 26.4489 102.163 26.3756 102.123 26.3089C101.86 26.269 101.649 26.2223 101.484 26.189C101.385 26.1623 101.273 26.129 101.147 26.089C101.048 26.0557 100.95 26.0223 100.837 25.9823C100.574 25.8824 100.382 25.7357 100.237 25.5691C100.099 25.3891 100.026 25.1692 100.02 24.9159L99.8877 17.4775C99.8811 16.1511 99.6371 15.1846 99.1755 14.5647C98.7072 13.9315 97.929 13.6183 96.8606 13.6183C95.9901 13.6183 95.1394 13.8649 94.3084 14.3581C93.4708 14.8447 92.5739 15.4912 91.6308 16.3177V5.07337C91.5517 4.9134 91.3868 4.78676 91.1296 4.66679C89.7249 5.29333 88.0959 5.69991 86.2757 5.86654C86.2295 5.99985 86.2097 6.10649 86.2097 6.1998C86.2097 6.31978 86.2295 6.41976 86.2757 6.55973C87.5749 6.63305 88.4916 6.833 89.039 7.1596C89.039 7.76614 89.039 9.41913 89.0588 12.0852C89.0588 14.758 89.0786 16.8642 89.0786 18.4106C89.0786 21.7699 89.0522 23.9294 89.0192 24.8959C89.0126 25.1492 88.9203 25.3691 88.7686 25.5491C88.6169 25.7224 88.3927 25.8624 88.0827 25.9624C87.9178 26.0157 87.7728 26.0623 87.6409 26.0957C87.5353 26.1223 87.4298 26.1556 87.3441 26.169C87.1594 26.2023 86.9286 26.249 86.645 26.289C86.5857 26.3889 86.5461 26.5089 86.5461 26.6422C86.5461 26.7622 86.5791 26.8755 86.6384 26.9755C87.0473 26.9555 87.4562 26.9422 87.8519 26.9288C88.6697 26.9022 89.4545 26.8955 90.2327 26.8955C91.0109 26.8955 91.8484 26.9022 92.686 26.9355C93.0883 26.9422 93.4906 26.9621 93.8995 26.9821C93.9589 26.8822 93.9918 26.7622 93.9918 26.6422C93.9918 26.5222 93.9588 26.3956 93.8929 26.2956C93.6819 26.269 93.5104 26.2423 93.3917 26.209C93.273 26.189 93.1081 26.1423 92.9036 26.089C92.8839 26.089 92.8641 26.0757 92.8443 26.069C92.6267 25.9957 92.442 25.909 92.3035 25.8224C92.1716 25.7157 92.0529 25.6024 91.9408 25.4425C91.8287 25.2758 91.7693 25.0892 91.7561 24.8892C91.7166 23.8228 91.6704 21.27 91.6374 17.1975C93.3785 15.9244 94.7437 15.2846 95.7197 15.2846C96.6958 15.2846 97.2761 16.1711 97.2761 17.9307L97.2431 24.8826C97.2431 25.1359 97.1838 25.3558 97.0783 25.5358C96.9662 25.7091 96.7947 25.849 96.5902 25.949C96.5111 25.9823 96.4386 26.009 96.3726 26.0423C96.2407 26.0957 96.1286 26.1357 96.0165 26.1623C95.8582 26.1956 95.6604 26.2423 95.4361 26.2823C95.3768 26.3823 95.3372 26.5022 95.3372 26.6355C95.3372 26.7555 95.3702 26.8755 95.4295 26.9755C95.845 26.9555 96.2473 26.9355 96.643 26.9222C97.4014 26.8955 98.1203 26.8888 98.7996 26.8888C99.4789 26.8888 100.171 26.8955 100.93 26.9222C101.319 26.9355 101.721 26.9488 102.143 26.9755C102.203 26.8755 102.236 26.7555 102.236 26.6355C102.236 26.5889 102.236 26.5422 102.222 26.4956L102.209 26.5222Z" fill="#07314C"/>
<path d="M84.4093 22.3098C84.0993 22.8363 83.8619 23.2496 83.7037 23.5229C83.5322 23.7895 83.308 24.1094 83.0178 24.4627C82.7276 24.8226 82.4374 25.0892 82.167 25.2425C81.9032 25.4158 81.5603 25.5558 81.158 25.6824C80.7491 25.8157 80.2875 25.869 79.7796 25.869H76.5943L84.0268 14.4981C84.0268 14.3181 83.9411 14.1315 83.7762 13.9582C82.3649 14.0315 80.7887 14.0648 79.0806 14.0648C77.5176 14.0648 76.0403 14.0248 74.6619 13.9582L73.6463 17.6174C73.6991 17.6707 73.798 17.7241 73.9761 17.7907C74.1475 17.864 74.2662 17.8974 74.319 17.8974C75.3016 15.8778 76.8844 14.8647 79.0542 14.8647H80.9535L73.4221 26.4156C73.4946 26.7089 73.6199 26.9088 73.798 27.0155C75.4665 26.9555 77.1878 26.9288 78.9619 26.9288C80.6436 26.9288 82.3187 26.9488 83.9938 27.0155L84.9237 22.4298C84.7523 22.3564 84.594 22.3231 84.4159 22.3231L84.4093 22.3098Z" fill="#07314C"/>
<path d="M71.7865 26.6555C71.7865 26.7622 71.7667 26.8555 71.7206 26.9488C71.714 26.9688 71.7008 26.9821 71.6942 26.9955C71.2787 26.9755 70.8764 26.9621 70.4807 26.9488C69.7223 26.9222 69.01 26.9155 68.3373 26.9155C67.7372 26.9155 67.0843 26.9222 66.3588 26.9488C65.9697 26.9555 65.5675 26.9755 65.1454 26.9955C65.1388 26.9821 65.1256 26.9688 65.1256 26.9488C65.0794 26.8622 65.053 26.7622 65.053 26.6555C65.053 26.5222 65.0926 26.4023 65.152 26.3023C65.3696 26.2623 65.5411 26.2156 65.6862 26.1823C65.8049 26.1556 65.9302 26.1023 66.0621 26.049C66.1148 26.0223 66.1676 25.9957 66.2204 25.9757C66.405 25.8757 66.5501 25.7291 66.6424 25.5624C66.748 25.3825 66.7941 25.1625 66.7941 24.9092L66.8205 17.9574C66.8205 16.1977 66.2995 15.3112 65.2773 15.3112C64.7563 15.3112 64.1891 15.4779 63.5956 15.8111C62.9756 16.1377 62.2568 16.651 61.4126 17.3042V17.4775L61.5247 24.9159C61.5313 25.1692 61.6105 25.3891 61.7424 25.5691C61.8875 25.7424 62.0853 25.8824 62.3425 25.9823C62.448 26.0223 62.5404 26.0557 62.6327 26.0823C62.7646 26.129 62.8833 26.169 62.9822 26.189C63.1405 26.2223 63.3383 26.269 63.5824 26.3023C63.6417 26.4023 63.6813 26.5222 63.6813 26.6555C63.6813 26.7622 63.6615 26.8555 63.6153 26.9488C63.6087 26.9688 63.5956 26.9821 63.589 26.9955C63.1735 26.9755 62.7712 26.9555 62.3755 26.9488C61.6302 26.9222 60.9246 26.9155 60.2717 26.9155C59.6781 26.9155 59.0054 26.9222 58.28 26.9488C57.8975 26.9555 57.4952 26.9755 57.0731 26.9955C57.027 26.9355 57.0006 26.8622 56.9874 26.7888C56.9676 26.6555 56.9808 26.5356 57.0204 26.4223C57.0401 26.3823 57.0533 26.3423 57.0797 26.3023C57.2973 26.2623 57.4754 26.2156 57.6271 26.1823C57.7326 26.1556 57.8579 26.109 57.9832 26.049C58.036 26.0223 58.0953 25.9957 58.1547 25.969C58.3525 25.869 58.491 25.7224 58.59 25.5558C58.6823 25.3758 58.735 25.1559 58.735 24.9026L58.7548 17.9507C58.7548 16.1911 58.247 15.3046 57.205 15.3046C56.6972 15.3046 56.1366 15.4712 55.5629 15.7911C54.9759 16.1177 54.2505 16.6043 53.3799 17.2575C53.3799 20.1236 53.4195 22.6697 53.492 24.9026C53.4986 25.1559 53.5778 25.3758 53.7031 25.5558C53.8218 25.7291 54.0064 25.869 54.2373 25.969C54.4681 26.0623 54.6791 26.1357 54.844 26.1823C55.0287 26.2223 55.2463 26.269 55.4903 26.3089C55.5497 26.4223 55.576 26.5489 55.576 26.6755C55.576 26.7689 55.5497 26.8755 55.4903 26.9955C54.2241 26.9355 53.0436 26.9088 51.9554 26.9088C51.1706 26.9088 50.3792 26.9155 49.5614 26.9488C49.1591 26.9555 48.7568 26.9755 48.3479 26.9888C48.2886 26.8888 48.2556 26.7755 48.2556 26.6555C48.2556 26.5222 48.2886 26.4089 48.3545 26.3023C48.6447 26.2623 48.8821 26.2156 49.0668 26.1823C49.1525 26.1623 49.2515 26.1423 49.357 26.109C49.4955 26.0757 49.6472 26.029 49.8252 25.9757C50.122 25.8757 50.3462 25.7291 50.4979 25.5624C50.6496 25.3825 50.7287 25.1625 50.7419 24.9092C50.7815 23.9361 50.8079 22.7763 50.8079 21.3966C50.8079 20.9367 50.8079 20.1569 50.7881 19.0571C50.7881 17.9507 50.7815 16.9909 50.7815 16.1577C50.4122 15.9378 49.878 15.7645 49.1789 15.6645C48.8426 15.6112 48.4733 15.5779 48.0578 15.5645C47.9984 15.4645 47.9654 15.3446 47.9654 15.2179C47.9654 15.0913 47.9984 14.9713 48.0644 14.8713C48.4337 14.8313 48.7898 14.7847 49.1328 14.7247C50.5309 14.5047 51.7839 14.1515 52.8853 13.6649C53.1227 13.7649 53.2876 13.8982 53.3865 14.0448V16.3644C53.8284 15.9444 54.2109 15.6045 54.5209 15.3446C54.8242 15.0846 55.2133 14.798 55.6618 14.5047C56.0971 14.2048 56.5455 13.9848 56.994 13.8249C57.4358 13.6849 57.8909 13.6049 58.3723 13.6049C59.3154 13.6049 60.0079 13.8249 60.4761 14.2848C60.9378 14.7447 61.228 15.4645 61.3401 16.4177C61.8281 15.9644 62.2238 15.6245 62.514 15.3779C62.8107 15.1313 63.1933 14.8513 63.6615 14.5247C64.1297 14.2115 64.598 13.9782 65.0399 13.8249C65.4949 13.6849 65.9434 13.6049 66.4248 13.6049C67.5064 13.6049 68.278 13.9182 68.7462 14.5514C69.2145 15.1713 69.4453 16.1377 69.4651 17.4641L69.6168 24.9026C69.6168 25.1559 69.6893 25.3758 69.8344 25.5558C69.9663 25.7291 70.1642 25.869 70.4345 25.969C70.5401 26.009 70.639 26.0423 70.7313 26.0757C70.8632 26.1157 70.9819 26.1556 71.0874 26.1823C71.2457 26.2156 71.4502 26.2623 71.6942 26.3023C71.7535 26.4023 71.7931 26.5222 71.7931 26.6555H71.7865Z" fill="#07314C"/>
<path d="M46.5145 22.0232C46.4024 21.6632 46.2639 21.35 46.0859 21.09C45.9078 20.8368 45.6308 20.5901 45.2549 20.3302C44.879 20.0902 44.5097 19.8903 44.1338 19.7103C43.771 19.5304 43.2632 19.3104 42.6169 19.0571C41.2386 18.4706 40.2757 18.0107 39.7613 17.6308C39.2469 17.2575 38.9897 16.7576 38.9897 16.0977C38.9897 15.5779 39.1941 15.1913 39.6228 14.9313C40.0383 14.6847 40.5395 14.5514 41.0935 14.5514C41.8057 14.5514 42.4454 14.7847 43.006 15.2379C43.5666 15.6978 44.2525 16.4043 45.0373 17.3841C45.3011 17.3841 45.4923 17.3242 45.5978 17.1908C45.2351 16.2044 44.9383 15.018 44.7075 13.6116H44.3316C44.3316 13.6116 44.1733 13.6716 43.9557 13.7449C43.7249 13.8249 43.5072 13.8982 43.2962 13.9449C43.2632 13.9315 43.1115 13.8849 42.8148 13.8116C42.5246 13.7382 42.2674 13.6916 42.0629 13.6649C41.8519 13.6383 41.6277 13.6183 41.3507 13.6183C40.6846 13.6183 40.0976 13.7049 39.5766 13.8649C39.049 14.0315 38.6335 14.2381 38.3236 14.4781C38.0136 14.7314 37.7564 15.018 37.5454 15.3512C37.3409 15.6845 37.2024 16.0044 37.1299 16.311C37.0573 16.6176 37.0178 16.9242 37.0178 17.2308C37.0178 17.6707 37.0903 18.0573 37.2552 18.4239C37.4069 18.7838 37.6047 19.0905 37.8356 19.3504C38.0862 19.617 38.4093 19.857 38.805 20.1102C39.2073 20.3502 39.5898 20.5568 39.9591 20.7234C40.335 20.8901 40.7901 21.07 41.3309 21.2633C42.1948 21.5899 42.8543 21.9099 43.3226 22.2365C43.7908 22.5631 44.0876 22.8697 44.2195 23.1629C44.358 23.4562 44.4239 23.8161 44.4239 24.2294C44.4239 24.7826 44.1931 25.2825 43.7117 25.7224C43.2368 26.1623 42.5905 26.3823 41.7464 26.3823C41.2122 26.3823 40.7307 26.289 40.3087 26.1023C39.8998 25.9024 39.5371 25.6358 39.2469 25.2492C38.9501 24.8759 38.7193 24.4893 38.5346 24.0894C38.4687 23.9561 38.4027 23.8095 38.3368 23.6495C38.2313 23.3762 38.1257 23.0763 38.0202 22.743C37.9279 22.6897 37.8224 22.6697 37.7168 22.6697C37.5652 22.6697 37.4267 22.723 37.3145 22.803C37.3145 23.1496 37.308 23.5095 37.2882 23.8961C37.2684 24.2894 37.2486 24.7093 37.209 25.1559C37.1365 26.069 37.0705 26.6022 37.0244 26.7555C37.0771 26.8555 37.1629 26.9355 37.2882 27.0155C38.0136 26.7289 38.5676 26.5956 38.9369 26.5956C39.2864 26.7689 39.5634 26.8955 39.7745 26.9821C39.9789 27.0755 40.2757 27.1554 40.645 27.2354C41.0209 27.3221 41.4496 27.3487 41.9244 27.3487C43.2368 27.3487 44.3646 26.9355 45.3011 26.1023C46.231 25.2625 46.7058 24.3294 46.7058 23.2962C46.7058 22.823 46.6464 22.4031 46.5211 22.0365L46.5145 22.0232Z" fill="#07314C"/>
</g>
<defs>
<clipPath id="clip0_1626_3266">
<rect width="102.222" height="32" fill="white"/>
</clipPath>
</defs>
</svg>
