<svg xmlns="http://www.w3.org/2000/svg" xmlns:xlink="http://www.w3.org/1999/xlink" viewBox="0 0 136 36"><g id="ss11409366946_1"><path d="M 0 35.885 L 0 0 L 136 0 L 136 35.885 Z" fill="transparent"></path><path d="M 1.71 28.145 C 0.684 28.145 0 27.441 0 26.386 L 0 1.759 C 0 0.704 0.684 0 1.71 0 C 2.736 0 3.42 0.704 3.42 1.759 L 3.42 26.386 C 3.42 27.441 2.736 28.145 1.71 28.145 Z" fill="rgb(37,83,77)"></path><path d="M 14.706 28.145 C 13.68 28.145 12.996 27.441 12.996 26.386 L 12.996 1.759 C 12.996 0.704 13.68 0 14.706 0 C 15.732 0 16.416 0.704 16.416 1.759 L 16.416 26.386 C 16.416 27.441 15.732 28.145 14.706 28.145 Z" fill="rgb(37,83,77)"></path><path d="M 8.208 35.885 C 7.182 35.885 6.498 35.181 6.498 34.126 L 6.498 9.499 C 6.498 8.443 7.182 7.74 8.208 7.74 C 9.234 7.74 9.918 8.443 9.918 9.499 L 9.918 34.126 C 9.918 35.181 9.234 35.885 8.208 35.885 Z" fill="rgb(37,83,77)"></path><path d="M 22.557 9.954 C 22.397 9.469 22.747 8.966 23.245 8.966 L 25.795 8.966 C 26.111 8.966 26.39 9.175 26.487 9.483 L 30.649 22.684 L 34.911 9.478 C 35.01 9.172 35.288 8.966 35.601 8.966 L 38.054 8.966 C 38.551 8.966 38.902 9.469 38.742 9.953 L 33.133 26.995 C 33.033 27.299 32.756 27.503 32.445 27.503 L 28.878 27.503 C 28.567 27.503 28.29 27.299 28.19 26.996 Z" fill="rgb(37,83,77)"></path><path d="M 45.14 27.662 C 43.75 27.662 42.523 27.379 41.459 26.814 C 40.412 26.232 39.597 25.411 39.013 24.351 C 38.447 23.292 38.164 22.074 38.164 20.697 C 38.164 19.32 38.447 18.102 39.013 17.042 C 39.597 15.983 40.412 15.171 41.459 14.606 C 42.523 14.023 43.75 13.732 45.14 13.732 C 46.53 13.732 47.749 14.023 48.796 14.606 C 49.86 15.171 50.675 15.983 51.241 17.042 C 51.825 18.102 52.117 19.32 52.117 20.697 C 52.117 22.092 51.825 23.318 51.241 24.378 C 50.675 25.419 49.86 26.232 48.796 26.814 C 47.749 27.379 46.53 27.662 45.14 27.662 Z M 45.14 24.616 C 46.153 24.616 46.951 24.254 47.534 23.53 C 48.135 22.806 48.435 21.862 48.435 20.697 C 48.435 19.532 48.135 18.587 47.534 17.863 C 46.951 17.139 46.153 16.778 45.14 16.778 C 44.145 16.778 43.347 17.139 42.746 17.863 C 42.162 18.587 41.871 19.532 41.871 20.697 C 41.871 21.862 42.162 22.806 42.746 23.53 C 43.347 24.254 44.145 24.616 45.14 24.616 Z" fill="rgb(37,83,77)"></path><path d="M 55.768 8.223 C 56.369 8.223 56.867 8.426 57.262 8.832 C 57.656 9.22 57.854 9.715 57.854 10.315 C 57.854 10.915 57.656 11.418 57.262 11.824 C 56.867 12.23 56.369 12.433 55.768 12.433 C 55.168 12.433 54.662 12.23 54.25 11.824 C 53.855 11.418 53.658 10.915 53.658 10.315 C 53.658 9.715 53.855 9.22 54.25 8.832 C 54.662 8.426 55.168 8.223 55.768 8.223 Z M 53.941 14.637 C 53.941 14.225 54.266 13.89 54.668 13.89 L 56.844 13.89 C 57.245 13.89 57.571 14.225 57.571 14.637 L 57.571 26.754 C 57.571 27.167 57.245 27.502 56.844 27.502 L 54.668 27.502 C 54.266 27.502 53.941 27.167 53.941 26.754 Z" fill="rgb(37,83,77)"></path><path d="M 71.8 22.339 C 72.244 22.339 72.588 22.747 72.474 23.188 C 72.146 24.45 71.516 25.474 70.584 26.258 C 69.468 27.194 68.018 27.662 66.233 27.662 C 64.86 27.662 63.659 27.379 62.629 26.814 C 61.599 26.232 60.801 25.411 60.235 24.351 C 59.686 23.292 59.411 22.074 59.411 20.697 C 59.411 19.302 59.686 18.084 60.235 17.042 C 60.801 15.983 61.599 15.171 62.629 14.606 C 63.676 14.023 64.886 13.732 66.259 13.732 C 68.027 13.732 69.468 14.2 70.584 15.136 C 71.497 15.887 72.123 16.882 72.461 18.118 C 72.582 18.561 72.238 18.976 71.79 18.976 L 69.46 18.976 C 69.123 18.976 68.84 18.732 68.706 18.414 C 68.533 18.002 68.284 17.659 67.958 17.387 C 67.494 16.981 66.92 16.778 66.233 16.778 C 65.289 16.778 64.534 17.139 63.968 17.863 C 63.401 18.587 63.118 19.532 63.118 20.697 C 63.118 21.862 63.401 22.806 63.968 23.53 C 64.534 24.254 65.289 24.616 66.233 24.616 C 66.937 24.616 67.52 24.413 67.984 24.007 C 68.322 23.721 68.575 23.361 68.744 22.926 C 68.872 22.595 69.16 22.339 69.506 22.339 Z" fill="rgb(37,83,77)"></path><path d="M 73.743 20.723 C 73.743 19.311 74.017 18.084 74.567 17.042 C 75.133 15.983 75.914 15.171 76.909 14.606 C 77.922 14.023 79.089 13.732 80.41 13.732 C 81.749 13.732 82.925 14.006 83.937 14.553 C 84.967 15.083 85.765 15.842 86.332 16.831 C 86.915 17.802 87.215 18.949 87.233 20.273 C 87.233 20.505 87.224 20.724 87.208 20.931 C 87.18 21.289 86.877 21.544 86.528 21.544 L 77.527 21.544 L 77.527 21.65 C 77.613 22.639 77.922 23.416 78.454 23.981 C 78.986 24.545 79.715 24.828 80.642 24.828 C 81.38 24.828 81.99 24.669 82.47 24.351 C 82.813 24.12 83.075 23.817 83.255 23.443 C 83.403 23.135 83.682 22.895 84.016 22.895 L 86.177 22.895 C 86.623 22.895 86.968 23.308 86.83 23.744 C 86.651 24.314 86.382 24.842 86.023 25.331 C 85.491 26.055 84.787 26.629 83.912 27.052 C 83.036 27.458 82.032 27.662 80.9 27.662 C 79.424 27.662 78.145 27.379 77.064 26.814 C 76 26.249 75.176 25.446 74.592 24.404 C 74.026 23.345 73.743 22.118 73.743 20.723 Z M 83.603 19.108 C 83.483 18.278 83.148 17.643 82.599 17.201 C 82.067 16.742 81.389 16.513 80.565 16.513 C 79.776 16.513 79.106 16.751 78.557 17.228 C 78.025 17.687 77.707 18.314 77.604 19.108 Z" fill="rgb(37,83,77)"></path><path d="M 90.052 27.503 C 89.651 27.503 89.325 27.168 89.325 26.755 L 89.325 9.714 C 89.325 9.301 89.651 8.966 90.052 8.966 L 92.46 8.966 C 92.861 8.966 93.187 9.301 93.187 9.714 L 93.187 24.087 L 99.617 24.087 C 100.018 24.087 100.344 24.422 100.344 24.835 L 100.344 26.755 C 100.344 27.168 100.018 27.503 99.617 27.503 Z" fill="rgb(37,83,77)"></path><path d="M 103.793 8.223 C 104.394 8.223 104.892 8.426 105.286 8.832 C 105.681 9.22 105.879 9.715 105.879 10.315 C 105.879 10.915 105.681 11.418 105.286 11.824 C 104.892 12.23 104.394 12.433 103.793 12.433 C 103.193 12.433 102.686 12.23 102.274 11.824 C 101.88 11.418 101.682 10.915 101.682 10.315 C 101.682 9.715 101.88 9.22 102.274 8.832 C 102.686 8.426 103.193 8.223 103.793 8.223 Z M 101.966 14.637 C 101.966 14.225 102.291 13.89 102.692 13.89 L 104.869 13.89 C 105.27 13.89 105.595 14.225 105.595 14.637 L 105.595 26.754 C 105.595 27.167 105.27 27.502 104.869 27.502 L 102.692 27.502 C 102.291 27.502 101.966 27.167 101.966 26.754 Z" fill="rgb(37,83,77)"></path><path d="M 115.545 13.732 C 117.09 13.732 118.36 14.227 119.355 15.215 C 120.351 16.204 120.849 17.837 120.849 20.114 L 120.849 26.755 C 120.849 27.168 120.523 27.503 120.122 27.503 L 117.945 27.503 C 117.544 27.503 117.219 27.168 117.219 26.755 L 117.219 20.326 C 117.219 17.978 116.326 16.804 114.541 16.804 C 113.597 16.804 112.868 17.131 112.353 17.784 C 111.838 18.437 111.581 19.355 111.581 20.538 L 111.581 26.755 C 111.581 27.168 111.255 27.503 110.854 27.503 L 108.678 27.503 C 108.276 27.503 107.951 27.168 107.951 26.755 L 107.951 14.639 C 107.951 14.226 108.276 13.891 108.678 13.891 L 110.523 13.891 C 110.869 13.891 111.167 14.141 111.235 14.49 L 111.452 15.586 C 111.915 15.003 112.473 14.553 113.125 14.235 C 113.778 13.9 114.584 13.732 115.545 13.732 Z" fill="rgb(37,83,77)"></path><path d="M 122.447 20.723 C 122.447 19.311 122.721 18.084 123.271 17.042 C 123.837 15.983 124.618 15.171 125.613 14.606 C 126.626 14.023 127.793 13.732 129.114 13.732 C 130.454 13.732 131.629 14.006 132.641 14.553 C 133.672 15.083 134.47 15.842 135.035 16.831 C 135.619 17.802 135.919 18.949 135.936 20.273 C 135.936 20.505 135.928 20.724 135.912 20.931 C 135.884 21.289 135.581 21.544 135.232 21.544 L 126.231 21.544 L 126.231 21.65 C 126.317 22.639 126.626 23.416 127.158 23.981 C 127.69 24.545 128.419 24.828 129.347 24.828 C 130.084 24.828 130.694 24.669 131.173 24.351 C 131.517 24.12 131.779 23.817 131.959 23.443 C 132.108 23.135 132.386 22.895 132.72 22.895 L 134.882 22.895 C 135.327 22.895 135.672 23.308 135.534 23.744 C 135.355 24.314 135.086 24.842 134.726 25.331 C 134.195 26.055 133.491 26.629 132.616 27.052 C 131.741 27.458 130.736 27.662 129.603 27.662 C 128.128 27.662 126.849 27.379 125.768 26.814 C 124.704 26.249 123.88 25.446 123.296 24.404 C 122.73 23.345 122.447 22.118 122.447 20.723 Z M 132.307 19.108 C 132.187 18.278 131.852 17.643 131.303 17.201 C 130.771 16.742 130.093 16.513 129.269 16.513 C 128.479 16.513 127.81 16.751 127.261 17.228 C 126.729 17.687 126.411 18.314 126.309 19.108 Z" fill="rgb(37,83,77)"></path></g></svg>