<svg width="258" height="270" viewBox="0 0 258 270" fill="none" xmlns="http://www.w3.org/2000/svg">
<path d="M68.4141 107.461C80.5816 107.461 90.4453 97.5972 90.4453 85.4297C90.4453 73.2622 80.5816 63.3984 68.4141 63.3984C56.2465 63.3984 46.3828 73.2622 46.3828 85.4297C46.3828 97.5972 56.2465 107.461 68.4141 107.461Z" fill="#0009FF"/>
<path d="M129 96.4453C132.034 96.4453 134.508 98.9143 134.508 101.953C134.508 104.997 136.971 107.461 140.016 107.461C143.06 107.461 145.523 104.997 145.523 101.953C145.523 94.782 140.905 88.7256 134.508 86.4442V79.9219C134.508 76.8775 132.044 74.4141 129 74.4141C125.956 74.4141 123.492 76.8775 123.492 79.9219V86.4442C117.095 88.7256 112.477 94.782 112.477 101.953C112.477 111.065 119.889 118.477 129 118.477C132.034 118.477 134.508 120.946 134.508 123.984C134.508 127.023 132.034 129.492 129 129.492C125.966 129.492 123.492 127.023 123.492 123.984C123.492 120.94 121.029 118.477 117.984 118.477C114.94 118.477 112.477 120.94 112.477 123.984C112.477 131.156 117.095 137.212 123.492 139.493V146.016C123.492 149.06 125.956 151.523 129 151.523C132.044 151.523 134.508 149.06 134.508 146.016V139.493C140.905 137.212 145.523 131.156 145.523 123.984C145.523 114.873 138.111 107.461 129 107.461C125.966 107.461 123.492 104.992 123.492 101.953C123.492 98.9143 125.966 96.4453 129 96.4453Z" fill="#0009FF"/>
<path d="M90.4453 201.094V188.897C70.8599 178.847 57.3984 158.486 57.3984 135C57.3984 131.956 59.8619 129.492 62.9062 129.492C65.9506 129.492 68.4141 131.956 68.4141 135C68.4141 162.335 90.6498 184.57 117.984 184.57H129C135.084 184.57 140.016 179.638 140.016 173.555C140.016 167.471 135.084 162.539 129 162.539H117.984C102.795 162.539 90.4453 150.184 90.4453 135C90.4453 119.816 78.0957 107.461 62.9062 107.461C47.7168 107.461 35 119.816 35 135V201.094C35 204.138 37.4635 206.602 40.5078 206.602H84.9375C87.9819 206.602 90.4453 204.138 90.4453 201.094Z" fill="#0009FF"/>
<path d="M189.586 107.461C201.753 107.461 211.617 97.5972 211.617 85.4297C211.617 73.2622 201.753 63.3984 189.586 63.3984C177.418 63.3984 167.555 73.2622 167.555 85.4297C167.555 97.5972 177.418 107.461 189.586 107.461Z" fill="#0009FF"/>
<path d="M195.096 107.461C179.906 107.461 167.557 119.816 167.557 135C167.557 147.626 158.969 158.182 147.359 161.419C149.67 164.903 151.033 169.069 151.033 173.555C151.033 177.241 150.037 180.664 148.43 183.72C171.752 179.697 189.588 159.454 189.588 135C189.588 131.956 192.051 129.492 195.096 129.492C198.14 129.492 200.603 131.956 200.603 135C200.603 158.486 187.142 178.847 167.557 188.897V201.094C167.557 204.138 170.02 206.602 173.064 206.602H217.494C220.538 206.602 223.002 204.138 223.002 201.094V135C223.002 119.816 210.285 107.461 195.096 107.461Z" fill="#0009FF"/>
</svg>
