<svg width="527" height="330" viewBox="0 0 527 330" fill="none" xmlns="http://www.w3.org/2000/svg">
<rect x="10" y="10" width="347" height="56" rx="28" fill="white"/>
<path d="M27.2195 44.5V32.1364H31.8558C32.8056 32.1364 33.6025 32.3134 34.2464 32.6676C34.8944 33.0218 35.3834 33.5088 35.7134 34.1286C36.0475 34.7443 36.2145 35.4446 36.2145 36.2294C36.2145 37.0223 36.0475 37.7266 35.7134 38.3423C35.3794 38.9581 34.8864 39.4431 34.2344 39.7972C33.5824 40.1474 32.7795 40.3224 31.8256 40.3224H28.7528V38.4812H31.5238C32.0792 38.4812 32.534 38.3846 32.8881 38.1914C33.2423 37.9982 33.5039 37.7326 33.6729 37.3945C33.846 37.0565 33.9325 36.6681 33.9325 36.2294C33.9325 35.7907 33.846 35.4044 33.6729 35.0703C33.5039 34.7363 33.2403 34.4767 32.8821 34.2915C32.5279 34.1024 32.0711 34.0078 31.5117 34.0078H29.4592V44.5H27.2195ZM41.9752 44.6811C41.0697 44.6811 40.2849 44.4819 39.6208 44.0835C38.9568 43.685 38.4416 43.1276 38.0754 42.4112C37.7132 41.6948 37.532 40.8577 37.532 39.8999C37.532 38.942 37.7132 38.1029 38.0754 37.3825C38.4416 36.662 38.9568 36.1026 39.6208 35.7042C40.2849 35.3058 41.0697 35.1065 41.9752 35.1065C42.8808 35.1065 43.6656 35.3058 44.3296 35.7042C44.9937 36.1026 45.5068 36.662 45.8691 37.3825C46.2353 38.1029 46.4184 38.942 46.4184 39.8999C46.4184 40.8577 46.2353 41.6948 45.8691 42.4112C45.5068 43.1276 44.9937 43.685 44.3296 44.0835C43.6656 44.4819 42.8808 44.6811 41.9752 44.6811ZM41.9873 42.9304C42.4783 42.9304 42.8888 42.7956 43.2188 42.5259C43.5489 42.2522 43.7944 41.886 43.9553 41.4272C44.1204 40.9684 44.2029 40.4573 44.2029 39.8938C44.2029 39.3263 44.1204 38.8132 43.9553 38.3544C43.7944 37.8916 43.5489 37.5233 43.2188 37.2496C42.8888 36.976 42.4783 36.8391 41.9873 36.8391C41.4842 36.8391 41.0657 36.976 40.7316 37.2496C40.4016 37.5233 40.1541 37.8916 39.9891 38.3544C39.8281 38.8132 39.7476 39.3263 39.7476 39.8938C39.7476 40.4573 39.8281 40.9684 39.9891 41.4272C40.1541 41.886 40.4016 42.2522 40.7316 42.5259C41.0657 42.7956 41.4842 42.9304 41.9873 42.9304ZM55.6021 37.6783L53.6099 37.8956C53.5536 37.6944 53.455 37.5052 53.3141 37.3281C53.1773 37.151 52.9921 37.0082 52.7587 36.8995C52.5253 36.7908 52.2395 36.7365 51.9015 36.7365C51.4467 36.7365 51.0643 36.8351 50.7544 37.0323C50.4486 37.2295 50.2976 37.4851 50.3017 37.799C50.2976 38.0687 50.3962 38.288 50.5975 38.457C50.8027 38.6261 51.1408 38.7649 51.6117 38.8736L53.1934 39.2116C54.0707 39.4008 54.7227 39.7006 55.1493 40.1112C55.58 40.5217 55.7973 41.0589 55.8013 41.723C55.7973 42.3066 55.6262 42.8217 55.2882 43.2685C54.9541 43.7112 54.4893 44.0573 53.8936 44.3068C53.298 44.5563 52.6138 44.6811 51.8411 44.6811C50.7061 44.6811 49.7926 44.4437 49.1003 43.9688C48.4081 43.4898 47.9956 42.8237 47.8627 41.9705L49.9938 41.7653C50.0904 42.1838 50.2956 42.4998 50.6096 42.7131C50.9235 42.9264 51.332 43.033 51.835 43.033C52.3542 43.033 52.7708 42.9264 53.0847 42.7131C53.4026 42.4998 53.5616 42.2362 53.5616 41.9222C53.5616 41.6566 53.459 41.4373 53.2537 41.2642C53.0525 41.0911 52.7386 40.9583 52.312 40.8658L50.7303 40.5337C49.8409 40.3486 49.1828 40.0367 48.7562 39.598C48.3296 39.1553 48.1183 38.5959 48.1223 37.9197C48.1183 37.3482 48.2733 36.8532 48.5872 36.4347C48.9051 36.0121 49.3458 35.6861 49.9093 35.4567C50.4767 35.2232 51.1307 35.1065 51.8713 35.1065C52.9579 35.1065 53.8132 35.3379 54.437 35.8008C55.0648 36.2636 55.4532 36.8894 55.6021 37.6783ZM62.2337 35.2273V36.9176H56.9031V35.2273H62.2337ZM58.2191 33.0057H60.4045V41.7109C60.4045 42.0047 60.4487 42.2301 60.5373 42.3871C60.6299 42.54 60.7506 42.6446 60.8995 42.701C61.0484 42.7573 61.2134 42.7855 61.3945 42.7855C61.5314 42.7855 61.6561 42.7754 61.7688 42.7553C61.8855 42.7352 61.9741 42.7171 62.0344 42.701L62.4027 44.4094C62.286 44.4497 62.119 44.494 61.9016 44.5423C61.6883 44.5906 61.4267 44.6187 61.1168 44.6268C60.5695 44.6429 60.0765 44.5604 59.6378 44.3793C59.1991 44.1941 58.851 43.9084 58.5934 43.522C58.3398 43.1357 58.2151 42.6527 58.2191 42.0732V33.0057ZM64.0613 44.5V35.2273H66.2467V44.5H64.0613ZM65.1601 33.9112C64.814 33.9112 64.5161 33.7965 64.2666 33.5671C64.0171 33.3337 63.8923 33.054 63.8923 32.728C63.8923 32.398 64.0171 32.1183 64.2666 31.8888C64.5161 31.6554 64.814 31.5387 65.1601 31.5387C65.5102 31.5387 65.808 31.6554 66.0535 31.8888C66.3031 32.1183 66.4278 32.398 66.4278 32.728C66.4278 33.054 66.3031 33.3337 66.0535 33.5671C65.808 33.7965 65.5102 33.9112 65.1601 33.9112ZM72.5387 44.6811C71.6332 44.6811 70.8484 44.4819 70.1843 44.0835C69.5202 43.685 69.0051 43.1276 68.6388 42.4112C68.2766 41.6948 68.0955 40.8577 68.0955 39.8999C68.0955 38.942 68.2766 38.1029 68.6388 37.3825C69.0051 36.662 69.5202 36.1026 70.1843 35.7042C70.8484 35.3058 71.6332 35.1065 72.5387 35.1065C73.4442 35.1065 74.229 35.3058 74.8931 35.7042C75.5572 36.1026 76.0703 36.662 76.4325 37.3825C76.7988 38.1029 76.9819 38.942 76.9819 39.8999C76.9819 40.8577 76.7988 41.6948 76.4325 42.4112C76.0703 43.1276 75.5572 43.685 74.8931 44.0835C74.229 44.4819 73.4442 44.6811 72.5387 44.6811ZM72.5508 42.9304C73.0418 42.9304 73.4523 42.7956 73.7823 42.5259C74.1123 42.2522 74.3578 41.886 74.5188 41.4272C74.6838 40.9684 74.7663 40.4573 74.7663 39.8938C74.7663 39.3263 74.6838 38.8132 74.5188 38.3544C74.3578 37.8916 74.1123 37.5233 73.7823 37.2496C73.4523 36.976 73.0418 36.8391 72.5508 36.8391C72.0477 36.8391 71.6291 36.976 71.2951 37.2496C70.9651 37.5233 70.7176 37.8916 70.5526 38.3544C70.3916 38.8132 70.3111 39.3263 70.3111 39.8938C70.3111 40.4573 70.3916 40.9684 70.5526 41.4272C70.7176 41.886 70.9651 42.2522 71.2951 42.5259C71.6291 42.7956 72.0477 42.9304 72.5508 42.9304ZM81.0221 39.0668V44.5H78.8367V35.2273H80.9255V36.8029H81.0342C81.2475 36.2837 81.5876 35.8712 82.0544 35.5653C82.5253 35.2595 83.1069 35.1065 83.7991 35.1065C84.439 35.1065 84.9964 35.2434 85.4713 35.517C85.9503 35.7907 86.3205 36.1871 86.5821 36.7063C86.8477 37.2255 86.9785 37.8554 86.9745 38.5959V44.5H84.7892V38.9339C84.7892 38.3142 84.6282 37.8292 84.3062 37.479C83.9883 37.1289 83.5476 36.9538 82.9841 36.9538C82.6018 36.9538 82.2617 37.0384 81.9639 37.2074C81.6701 37.3724 81.4387 37.6119 81.2696 37.9258C81.1046 38.2397 81.0221 38.62 81.0221 39.0668Z" fill="#0009FF"/>
<rect x="305" y="14" width="48" height="48" rx="24" fill="#0009FF"/>
<path d="M337.781 38.531L331.031 45.281C330.89 45.4218 330.699 45.5008 330.5 45.5008C330.301 45.5008 330.11 45.4218 329.969 45.281C329.829 45.1403 329.75 44.9494 329.75 44.7504C329.75 44.5514 329.829 44.3605 329.969 44.2198L335.44 38.7504H320.75C320.551 38.7504 320.36 38.6714 320.22 38.5307C320.079 38.3901 320 38.1993 320 38.0004C320 37.8015 320.079 37.6107 320.22 37.4701C320.36 37.3294 320.551 37.2504 320.75 37.2504H335.44L329.969 31.781C329.829 31.6403 329.75 31.4494 329.75 31.2504C329.75 31.0514 329.829 30.8605 329.969 30.7198C330.11 30.5791 330.301 30.5 330.5 30.5C330.699 30.5 330.89 30.5791 331.031 30.7198L337.781 37.4698C337.85 37.5394 337.906 37.6222 337.943 37.7132C337.981 37.8043 338.001 37.9019 338.001 38.0004C338.001 38.099 337.981 38.1966 337.943 38.2876C337.906 38.3787 337.85 38.4614 337.781 38.531Z" fill="white"/>
<rect x="180" y="76" width="347" height="56" rx="28" fill="white"/>
<path d="M197.219 110.5V98.1364H201.856C202.806 98.1364 203.603 98.3134 204.246 98.6676C204.894 99.0218 205.383 99.5088 205.713 100.129C206.047 100.744 206.214 101.445 206.214 102.229C206.214 103.022 206.047 103.727 205.713 104.342C205.379 104.958 204.886 105.443 204.234 105.797C203.582 106.147 202.779 106.322 201.826 106.322H198.753V104.481H201.524C202.079 104.481 202.534 104.385 202.888 104.191C203.242 103.998 203.504 103.733 203.673 103.395C203.846 103.056 203.933 102.668 203.933 102.229C203.933 101.791 203.846 101.404 203.673 101.07C203.504 100.736 203.24 100.477 202.882 100.292C202.528 100.102 202.071 100.008 201.512 100.008H199.459V110.5H197.219ZM211.975 110.681C211.07 110.681 210.285 110.482 209.621 110.083C208.957 109.685 208.442 109.128 208.075 108.411C207.713 107.695 207.532 106.858 207.532 105.9C207.532 104.942 207.713 104.103 208.075 103.382C208.442 102.662 208.957 102.103 209.621 101.704C210.285 101.306 211.07 101.107 211.975 101.107C212.881 101.107 213.666 101.306 214.33 101.704C214.994 102.103 215.507 102.662 215.869 103.382C216.235 104.103 216.418 104.942 216.418 105.9C216.418 106.858 216.235 107.695 215.869 108.411C215.507 109.128 214.994 109.685 214.33 110.083C213.666 110.482 212.881 110.681 211.975 110.681ZM211.987 108.93C212.478 108.93 212.889 108.796 213.219 108.526C213.549 108.252 213.794 107.886 213.955 107.427C214.12 106.968 214.203 106.457 214.203 105.894C214.203 105.326 214.12 104.813 213.955 104.354C213.794 103.892 213.549 103.523 213.219 103.25C212.889 102.976 212.478 102.839 211.987 102.839C211.484 102.839 211.066 102.976 210.732 103.25C210.402 103.523 210.154 103.892 209.989 104.354C209.828 104.813 209.748 105.326 209.748 105.894C209.748 106.457 209.828 106.968 209.989 107.427C210.154 107.886 210.402 108.252 210.732 108.526C211.066 108.796 211.484 108.93 211.987 108.93ZM225.602 103.678L223.61 103.896C223.554 103.694 223.455 103.505 223.314 103.328C223.177 103.151 222.992 103.008 222.759 102.9C222.525 102.791 222.24 102.737 221.901 102.737C221.447 102.737 221.064 102.835 220.754 103.032C220.449 103.23 220.298 103.485 220.302 103.799C220.298 104.069 220.396 104.288 220.597 104.457C220.803 104.626 221.141 104.765 221.612 104.874L223.193 105.212C224.071 105.401 224.723 105.701 225.149 106.111C225.58 106.522 225.797 107.059 225.801 107.723C225.797 108.307 225.626 108.822 225.288 109.268C224.954 109.711 224.489 110.057 223.894 110.307C223.298 110.556 222.614 110.681 221.841 110.681C220.706 110.681 219.793 110.444 219.1 109.969C218.408 109.49 217.996 108.824 217.863 107.971L219.994 107.765C220.09 108.184 220.296 108.5 220.61 108.713C220.923 108.926 221.332 109.033 221.835 109.033C222.354 109.033 222.771 108.926 223.085 108.713C223.403 108.5 223.562 108.236 223.562 107.922C223.562 107.657 223.459 107.437 223.254 107.264C223.052 107.091 222.739 106.958 222.312 106.866L220.73 106.534C219.841 106.349 219.183 106.037 218.756 105.598C218.33 105.155 218.118 104.596 218.122 103.92C218.118 103.348 218.273 102.853 218.587 102.435C218.905 102.012 219.346 101.686 219.909 101.457C220.477 101.223 221.131 101.107 221.871 101.107C222.958 101.107 223.813 101.338 224.437 101.801C225.065 102.264 225.453 102.889 225.602 103.678ZM232.234 101.227V102.918H226.903V101.227H232.234ZM228.219 99.0057H230.404V107.711C230.404 108.005 230.449 108.23 230.537 108.387C230.63 108.54 230.751 108.645 230.9 108.701C231.048 108.757 231.213 108.786 231.395 108.786C231.531 108.786 231.656 108.775 231.769 108.755C231.886 108.735 231.974 108.717 232.034 108.701L232.403 110.409C232.286 110.45 232.119 110.494 231.902 110.542C231.688 110.591 231.427 110.619 231.117 110.627C230.569 110.643 230.076 110.56 229.638 110.379C229.199 110.194 228.851 109.908 228.593 109.522C228.34 109.136 228.215 108.653 228.219 108.073V99.0057ZM234.061 110.5V101.227H236.247V110.5H234.061ZM235.16 99.9112C234.814 99.9112 234.516 99.7965 234.267 99.5671C234.017 99.3337 233.892 99.054 233.892 98.728C233.892 98.398 234.017 98.1183 234.267 97.8888C234.516 97.6554 234.814 97.5387 235.16 97.5387C235.51 97.5387 235.808 97.6554 236.054 97.8888C236.303 98.1183 236.428 98.398 236.428 98.728C236.428 99.054 236.303 99.3337 236.054 99.5671C235.808 99.7965 235.51 99.9112 235.16 99.9112ZM242.539 110.681C241.633 110.681 240.848 110.482 240.184 110.083C239.52 109.685 239.005 109.128 238.639 108.411C238.277 107.695 238.096 106.858 238.096 105.9C238.096 104.942 238.277 104.103 238.639 103.382C239.005 102.662 239.52 102.103 240.184 101.704C240.848 101.306 241.633 101.107 242.539 101.107C243.444 101.107 244.229 101.306 244.893 101.704C245.557 102.103 246.07 102.662 246.433 103.382C246.799 104.103 246.982 104.942 246.982 105.9C246.982 106.858 246.799 107.695 246.433 108.411C246.07 109.128 245.557 109.685 244.893 110.083C244.229 110.482 243.444 110.681 242.539 110.681ZM242.551 108.93C243.042 108.93 243.452 108.796 243.782 108.526C244.112 108.252 244.358 107.886 244.519 107.427C244.684 106.968 244.766 106.457 244.766 105.894C244.766 105.326 244.684 104.813 244.519 104.354C244.358 103.892 244.112 103.523 243.782 103.25C243.452 102.976 243.042 102.839 242.551 102.839C242.048 102.839 241.629 102.976 241.295 103.25C240.965 103.523 240.718 103.892 240.553 104.354C240.392 104.813 240.311 105.326 240.311 105.894C240.311 106.457 240.392 106.968 240.553 107.427C240.718 107.886 240.965 108.252 241.295 108.526C241.629 108.796 242.048 108.93 242.551 108.93ZM251.022 105.067V110.5H248.837V101.227H250.926V102.803H251.034C251.247 102.284 251.588 101.871 252.054 101.565C252.525 101.259 253.107 101.107 253.799 101.107C254.439 101.107 254.996 101.243 255.471 101.517C255.95 101.791 256.321 102.187 256.582 102.706C256.848 103.225 256.979 103.855 256.975 104.596V110.5H254.789V104.934C254.789 104.314 254.628 103.829 254.306 103.479C253.988 103.129 253.548 102.954 252.984 102.954C252.602 102.954 252.262 103.038 251.964 103.207C251.67 103.372 251.439 103.612 251.27 103.926C251.105 104.24 251.022 104.62 251.022 105.067Z" fill="#0009FF"/>
<rect x="475" y="80" width="48" height="48" rx="24" fill="#0009FF"/>
<path d="M507.781 104.531L501.031 111.281C500.89 111.422 500.699 111.501 500.5 111.501C500.301 111.501 500.11 111.422 499.969 111.281C499.829 111.14 499.75 110.949 499.75 110.75C499.75 110.551 499.829 110.361 499.969 110.22L505.44 104.75H490.75C490.551 104.75 490.36 104.671 490.22 104.531C490.079 104.39 490 104.199 490 104C490 103.802 490.079 103.611 490.22 103.47C490.36 103.329 490.551 103.25 490.75 103.25H505.44L499.969 97.781C499.829 97.6403 499.75 97.4494 499.75 97.2504C499.75 97.0514 499.829 96.8605 499.969 96.7198C500.11 96.5791 500.301 96.5 500.5 96.5C500.699 96.5 500.89 96.5791 501.031 96.7198L507.781 103.47C507.85 103.539 507.906 103.622 507.943 103.713C507.981 103.804 508.001 103.902 508.001 104C508.001 104.099 507.981 104.197 507.943 104.288C507.906 104.379 507.85 104.461 507.781 104.531Z" fill="white"/>
<rect x="10" y="142" width="347" height="56" rx="28" fill="white"/>
<path d="M27.2195 176.5V164.136H31.8558C32.8056 164.136 33.6025 164.313 34.2464 164.668C34.8944 165.022 35.3834 165.509 35.7134 166.129C36.0475 166.744 36.2145 167.445 36.2145 168.229C36.2145 169.022 36.0475 169.727 35.7134 170.342C35.3794 170.958 34.8864 171.443 34.2344 171.797C33.5824 172.147 32.7795 172.322 31.8256 172.322H28.7528V170.481H31.5238C32.0792 170.481 32.534 170.385 32.8881 170.191C33.2423 169.998 33.5039 169.733 33.6729 169.395C33.846 169.056 33.9325 168.668 33.9325 168.229C33.9325 167.791 33.846 167.404 33.6729 167.07C33.5039 166.736 33.2403 166.477 32.8821 166.292C32.5279 166.102 32.0711 166.008 31.5117 166.008H29.4592V176.5H27.2195ZM41.9752 176.681C41.0697 176.681 40.2849 176.482 39.6208 176.083C38.9568 175.685 38.4416 175.128 38.0754 174.411C37.7132 173.695 37.532 172.858 37.532 171.9C37.532 170.942 37.7132 170.103 38.0754 169.382C38.4416 168.662 38.9568 168.103 39.6208 167.704C40.2849 167.306 41.0697 167.107 41.9752 167.107C42.8808 167.107 43.6656 167.306 44.3296 167.704C44.9937 168.103 45.5068 168.662 45.8691 169.382C46.2353 170.103 46.4184 170.942 46.4184 171.9C46.4184 172.858 46.2353 173.695 45.8691 174.411C45.5068 175.128 44.9937 175.685 44.3296 176.083C43.6656 176.482 42.8808 176.681 41.9752 176.681ZM41.9873 174.93C42.4783 174.93 42.8888 174.796 43.2188 174.526C43.5489 174.252 43.7944 173.886 43.9553 173.427C44.1204 172.968 44.2029 172.457 44.2029 171.894C44.2029 171.326 44.1204 170.813 43.9553 170.354C43.7944 169.892 43.5489 169.523 43.2188 169.25C42.8888 168.976 42.4783 168.839 41.9873 168.839C41.4842 168.839 41.0657 168.976 40.7316 169.25C40.4016 169.523 40.1541 169.892 39.9891 170.354C39.8281 170.813 39.7476 171.326 39.7476 171.894C39.7476 172.457 39.8281 172.968 39.9891 173.427C40.1541 173.886 40.4016 174.252 40.7316 174.526C41.0657 174.796 41.4842 174.93 41.9873 174.93ZM55.6021 169.678L53.6099 169.896C53.5536 169.694 53.455 169.505 53.3141 169.328C53.1773 169.151 52.9921 169.008 52.7587 168.9C52.5253 168.791 52.2395 168.737 51.9015 168.737C51.4467 168.737 51.0643 168.835 50.7544 169.032C50.4486 169.23 50.2976 169.485 50.3017 169.799C50.2976 170.069 50.3962 170.288 50.5975 170.457C50.8027 170.626 51.1408 170.765 51.6117 170.874L53.1934 171.212C54.0707 171.401 54.7227 171.701 55.1493 172.111C55.58 172.522 55.7973 173.059 55.8013 173.723C55.7973 174.307 55.6262 174.822 55.2882 175.268C54.9541 175.711 54.4893 176.057 53.8936 176.307C53.298 176.556 52.6138 176.681 51.8411 176.681C50.7061 176.681 49.7926 176.444 49.1003 175.969C48.4081 175.49 47.9956 174.824 47.8627 173.971L49.9938 173.765C50.0904 174.184 50.2956 174.5 50.6096 174.713C50.9235 174.926 51.332 175.033 51.835 175.033C52.3542 175.033 52.7708 174.926 53.0847 174.713C53.4026 174.5 53.5616 174.236 53.5616 173.922C53.5616 173.657 53.459 173.437 53.2537 173.264C53.0525 173.091 52.7386 172.958 52.312 172.866L50.7303 172.534C49.8409 172.349 49.1828 172.037 48.7562 171.598C48.3296 171.155 48.1183 170.596 48.1223 169.92C48.1183 169.348 48.2733 168.853 48.5872 168.435C48.9051 168.012 49.3458 167.686 49.9093 167.457C50.4767 167.223 51.1307 167.107 51.8713 167.107C52.9579 167.107 53.8132 167.338 54.437 167.801C55.0648 168.264 55.4532 168.889 55.6021 169.678ZM62.2337 167.227V168.918H56.9031V167.227H62.2337ZM58.2191 165.006H60.4045V173.711C60.4045 174.005 60.4487 174.23 60.5373 174.387C60.6299 174.54 60.7506 174.645 60.8995 174.701C61.0484 174.757 61.2134 174.786 61.3945 174.786C61.5314 174.786 61.6561 174.775 61.7688 174.755C61.8855 174.735 61.9741 174.717 62.0344 174.701L62.4027 176.409C62.286 176.45 62.119 176.494 61.9016 176.542C61.6883 176.591 61.4267 176.619 61.1168 176.627C60.5695 176.643 60.0765 176.56 59.6378 176.379C59.1991 176.194 58.851 175.908 58.5934 175.522C58.3398 175.136 58.2151 174.653 58.2191 174.073V165.006ZM64.0613 176.5V167.227H66.2467V176.5H64.0613ZM65.1601 165.911C64.814 165.911 64.5161 165.797 64.2666 165.567C64.0171 165.334 63.8923 165.054 63.8923 164.728C63.8923 164.398 64.0171 164.118 64.2666 163.889C64.5161 163.655 64.814 163.539 65.1601 163.539C65.5102 163.539 65.808 163.655 66.0535 163.889C66.3031 164.118 66.4278 164.398 66.4278 164.728C66.4278 165.054 66.3031 165.334 66.0535 165.567C65.808 165.797 65.5102 165.911 65.1601 165.911ZM72.5387 176.681C71.6332 176.681 70.8484 176.482 70.1843 176.083C69.5202 175.685 69.0051 175.128 68.6388 174.411C68.2766 173.695 68.0955 172.858 68.0955 171.9C68.0955 170.942 68.2766 170.103 68.6388 169.382C69.0051 168.662 69.5202 168.103 70.1843 167.704C70.8484 167.306 71.6332 167.107 72.5387 167.107C73.4442 167.107 74.229 167.306 74.8931 167.704C75.5572 168.103 76.0703 168.662 76.4325 169.382C76.7988 170.103 76.9819 170.942 76.9819 171.9C76.9819 172.858 76.7988 173.695 76.4325 174.411C76.0703 175.128 75.5572 175.685 74.8931 176.083C74.229 176.482 73.4442 176.681 72.5387 176.681ZM72.5508 174.93C73.0418 174.93 73.4523 174.796 73.7823 174.526C74.1123 174.252 74.3578 173.886 74.5188 173.427C74.6838 172.968 74.7663 172.457 74.7663 171.894C74.7663 171.326 74.6838 170.813 74.5188 170.354C74.3578 169.892 74.1123 169.523 73.7823 169.25C73.4523 168.976 73.0418 168.839 72.5508 168.839C72.0477 168.839 71.6291 168.976 71.2951 169.25C70.9651 169.523 70.7176 169.892 70.5526 170.354C70.3916 170.813 70.3111 171.326 70.3111 171.894C70.3111 172.457 70.3916 172.968 70.5526 173.427C70.7176 173.886 70.9651 174.252 71.2951 174.526C71.6291 174.796 72.0477 174.93 72.5508 174.93ZM81.0221 171.067V176.5H78.8367V167.227H80.9255V168.803H81.0342C81.2475 168.284 81.5876 167.871 82.0544 167.565C82.5253 167.259 83.1069 167.107 83.7991 167.107C84.439 167.107 84.9964 167.243 85.4713 167.517C85.9503 167.791 86.3205 168.187 86.5821 168.706C86.8477 169.225 86.9785 169.855 86.9745 170.596V176.5H84.7892V170.934C84.7892 170.314 84.6282 169.829 84.3062 169.479C83.9883 169.129 83.5476 168.954 82.9841 168.954C82.6018 168.954 82.2617 169.038 81.9639 169.207C81.6701 169.372 81.4387 169.612 81.2696 169.926C81.1046 170.24 81.0221 170.62 81.0221 171.067Z" fill="#0009FF"/>
<rect x="305" y="146" width="48" height="48" rx="24" fill="#0009FF"/>
<path d="M337.781 170.531L331.031 177.281C330.89 177.422 330.699 177.501 330.5 177.501C330.301 177.501 330.11 177.422 329.969 177.281C329.829 177.14 329.75 176.949 329.75 176.75C329.75 176.551 329.829 176.361 329.969 176.22L335.44 170.75H320.75C320.551 170.75 320.36 170.671 320.22 170.531C320.079 170.39 320 170.199 320 170C320 169.802 320.079 169.611 320.22 169.47C320.36 169.329 320.551 169.25 320.75 169.25H335.44L329.969 163.781C329.829 163.64 329.75 163.449 329.75 163.25C329.75 163.051 329.829 162.861 329.969 162.72C330.11 162.579 330.301 162.5 330.5 162.5C330.699 162.5 330.89 162.579 331.031 162.72L337.781 169.47C337.85 169.539 337.906 169.622 337.943 169.713C337.981 169.804 338.001 169.902 338.001 170C338.001 170.099 337.981 170.197 337.943 170.288C337.906 170.379 337.85 170.461 337.781 170.531Z" fill="white"/>
<rect x="11" y="208" width="230" height="56" rx="28" fill="white"/>
<path d="M28.2195 242.5V230.136H32.8558C33.8056 230.136 34.6025 230.313 35.2464 230.668C35.8944 231.022 36.3834 231.509 36.7134 232.129C37.0475 232.744 37.2145 233.445 37.2145 234.229C37.2145 235.022 37.0475 235.727 36.7134 236.342C36.3794 236.958 35.8864 237.443 35.2344 237.797C34.5824 238.147 33.7795 238.322 32.8256 238.322H29.7528V236.481H32.5238C33.0792 236.481 33.534 236.385 33.8881 236.191C34.2423 235.998 34.5039 235.733 34.6729 235.395C34.846 235.056 34.9325 234.668 34.9325 234.229C34.9325 233.791 34.846 233.404 34.6729 233.07C34.5039 232.736 34.2403 232.477 33.8821 232.292C33.5279 232.102 33.0711 232.008 32.5117 232.008H30.4592V242.5H28.2195ZM42.9752 242.681C42.0697 242.681 41.2849 242.482 40.6208 242.083C39.9568 241.685 39.4416 241.128 39.0754 240.411C38.7132 239.695 38.532 238.858 38.532 237.9C38.532 236.942 38.7132 236.103 39.0754 235.382C39.4416 234.662 39.9568 234.103 40.6208 233.704C41.2849 233.306 42.0697 233.107 42.9752 233.107C43.8808 233.107 44.6656 233.306 45.3296 233.704C45.9937 234.103 46.5068 234.662 46.8691 235.382C47.2353 236.103 47.4184 236.942 47.4184 237.9C47.4184 238.858 47.2353 239.695 46.8691 240.411C46.5068 241.128 45.9937 241.685 45.3296 242.083C44.6656 242.482 43.8808 242.681 42.9752 242.681ZM42.9873 240.93C43.4783 240.93 43.8888 240.796 44.2188 240.526C44.5489 240.252 44.7944 239.886 44.9553 239.427C45.1204 238.968 45.2029 238.457 45.2029 237.894C45.2029 237.326 45.1204 236.813 44.9553 236.354C44.7944 235.892 44.5489 235.523 44.2188 235.25C43.8888 234.976 43.4783 234.839 42.9873 234.839C42.4842 234.839 42.0657 234.976 41.7316 235.25C41.4016 235.523 41.1541 235.892 40.9891 236.354C40.8281 236.813 40.7476 237.326 40.7476 237.894C40.7476 238.457 40.8281 238.968 40.9891 239.427C41.1541 239.886 41.4016 240.252 41.7316 240.526C42.0657 240.796 42.4842 240.93 42.9873 240.93ZM56.6021 235.678L54.6099 235.896C54.5536 235.694 54.455 235.505 54.3141 235.328C54.1773 235.151 53.9921 235.008 53.7587 234.9C53.5253 234.791 53.2395 234.737 52.9015 234.737C52.4467 234.737 52.0643 234.835 51.7544 235.032C51.4486 235.23 51.2976 235.485 51.3017 235.799C51.2976 236.069 51.3962 236.288 51.5975 236.457C51.8027 236.626 52.1408 236.765 52.6117 236.874L54.1934 237.212C55.0707 237.401 55.7227 237.701 56.1493 238.111C56.58 238.522 56.7973 239.059 56.8013 239.723C56.7973 240.307 56.6262 240.822 56.2882 241.268C55.9541 241.711 55.4893 242.057 54.8936 242.307C54.298 242.556 53.6138 242.681 52.8411 242.681C51.7061 242.681 50.7926 242.444 50.1003 241.969C49.4081 241.49 48.9956 240.824 48.8627 239.971L50.9938 239.765C51.0904 240.184 51.2956 240.5 51.6096 240.713C51.9235 240.926 52.332 241.033 52.835 241.033C53.3542 241.033 53.7708 240.926 54.0847 240.713C54.4026 240.5 54.5616 240.236 54.5616 239.922C54.5616 239.657 54.459 239.437 54.2537 239.264C54.0525 239.091 53.7386 238.958 53.312 238.866L51.7303 238.534C50.8409 238.349 50.1828 238.037 49.7562 237.598C49.3296 237.155 49.1183 236.596 49.1223 235.92C49.1183 235.348 49.2733 234.853 49.5872 234.435C49.9051 234.012 50.3458 233.686 50.9093 233.457C51.4767 233.223 52.1307 233.107 52.8713 233.107C53.9579 233.107 54.8132 233.338 55.437 233.801C56.0648 234.264 56.4532 234.889 56.6021 235.678ZM63.2337 233.227V234.918H57.9031V233.227H63.2337ZM59.2191 231.006H61.4045V239.711C61.4045 240.005 61.4487 240.23 61.5373 240.387C61.6299 240.54 61.7506 240.645 61.8995 240.701C62.0484 240.757 62.2134 240.786 62.3945 240.786C62.5314 240.786 62.6561 240.775 62.7688 240.755C62.8855 240.735 62.9741 240.717 63.0344 240.701L63.4027 242.409C63.286 242.45 63.119 242.494 62.9016 242.542C62.6883 242.591 62.4267 242.619 62.1168 242.627C61.5695 242.643 61.0765 242.56 60.6378 242.379C60.1991 242.194 59.851 241.908 59.5934 241.522C59.3398 241.136 59.2151 240.653 59.2191 240.073V231.006ZM65.0613 242.5V233.227H67.2467V242.5H65.0613ZM66.1601 231.911C65.814 231.911 65.5161 231.797 65.2666 231.567C65.0171 231.334 64.8923 231.054 64.8923 230.728C64.8923 230.398 65.0171 230.118 65.2666 229.889C65.5161 229.655 65.814 229.539 66.1601 229.539C66.5102 229.539 66.808 229.655 67.0535 229.889C67.3031 230.118 67.4278 230.398 67.4278 230.728C67.4278 231.054 67.3031 231.334 67.0535 231.567C66.808 231.797 66.5102 231.911 66.1601 231.911ZM73.5387 242.681C72.6332 242.681 71.8484 242.482 71.1843 242.083C70.5202 241.685 70.0051 241.128 69.6388 240.411C69.2766 239.695 69.0955 238.858 69.0955 237.9C69.0955 236.942 69.2766 236.103 69.6388 235.382C70.0051 234.662 70.5202 234.103 71.1843 233.704C71.8484 233.306 72.6332 233.107 73.5387 233.107C74.4442 233.107 75.229 233.306 75.8931 233.704C76.5572 234.103 77.0703 234.662 77.4325 235.382C77.7988 236.103 77.9819 236.942 77.9819 237.9C77.9819 238.858 77.7988 239.695 77.4325 240.411C77.0703 241.128 76.5572 241.685 75.8931 242.083C75.229 242.482 74.4442 242.681 73.5387 242.681ZM73.5508 240.93C74.0418 240.93 74.4523 240.796 74.7823 240.526C75.1123 240.252 75.3578 239.886 75.5188 239.427C75.6838 238.968 75.7663 238.457 75.7663 237.894C75.7663 237.326 75.6838 236.813 75.5188 236.354C75.3578 235.892 75.1123 235.523 74.7823 235.25C74.4523 234.976 74.0418 234.839 73.5508 234.839C73.0477 234.839 72.6291 234.976 72.2951 235.25C71.9651 235.523 71.7176 235.892 71.5526 236.354C71.3916 236.813 71.3111 237.326 71.3111 237.894C71.3111 238.457 71.3916 238.968 71.5526 239.427C71.7176 239.886 71.9651 240.252 72.2951 240.526C72.6291 240.796 73.0477 240.93 73.5508 240.93ZM82.0221 237.067V242.5H79.8367V233.227H81.9255V234.803H82.0342C82.2475 234.284 82.5876 233.871 83.0544 233.565C83.5253 233.259 84.1069 233.107 84.7991 233.107C85.439 233.107 85.9964 233.243 86.4713 233.517C86.9503 233.791 87.3205 234.187 87.5821 234.706C87.8477 235.225 87.9785 235.855 87.9745 236.596V242.5H85.7892V236.934C85.7892 236.314 85.6282 235.829 85.3062 235.479C84.9883 235.129 84.5476 234.954 83.9841 234.954C83.6018 234.954 83.2617 235.038 82.9639 235.207C82.6701 235.372 82.4387 235.612 82.2696 235.926C82.1046 236.24 82.0221 236.62 82.0221 237.067Z" fill="#0009FF"/>
<rect x="189" y="212" width="48" height="48" rx="24" fill="#0009FF"/>
<path d="M221.781 236.531L215.031 243.281C214.89 243.422 214.699 243.501 214.5 243.501C214.301 243.501 214.11 243.422 213.969 243.281C213.829 243.14 213.75 242.949 213.75 242.75C213.75 242.551 213.829 242.361 213.969 242.22L219.44 236.75H204.75C204.551 236.75 204.36 236.671 204.22 236.531C204.079 236.39 204 236.199 204 236C204 235.802 204.079 235.611 204.22 235.47C204.36 235.329 204.551 235.25 204.75 235.25H219.44L213.969 229.781C213.829 229.64 213.75 229.449 213.75 229.25C213.75 229.051 213.829 228.861 213.969 228.72C214.11 228.579 214.301 228.5 214.5 228.5C214.699 228.5 214.89 228.579 215.031 228.72L221.781 235.47C221.85 235.539 221.906 235.622 221.943 235.713C221.981 235.804 222.001 235.902 222.001 236C222.001 236.099 221.981 236.197 221.943 236.288C221.906 236.379 221.85 236.461 221.781 236.531Z" fill="white"/>
<rect x="182" y="274" width="230" height="56" rx="28" fill="white"/>
<path d="M199.219 308.5V296.136H203.856C204.806 296.136 205.603 296.313 206.246 296.668C206.894 297.022 207.383 297.509 207.713 298.129C208.047 298.744 208.214 299.445 208.214 300.229C208.214 301.022 208.047 301.727 207.713 302.342C207.379 302.958 206.886 303.443 206.234 303.797C205.582 304.147 204.779 304.322 203.826 304.322H200.753V302.481H203.524C204.079 302.481 204.534 302.385 204.888 302.191C205.242 301.998 205.504 301.733 205.673 301.395C205.846 301.056 205.933 300.668 205.933 300.229C205.933 299.791 205.846 299.404 205.673 299.07C205.504 298.736 205.24 298.477 204.882 298.292C204.528 298.102 204.071 298.008 203.512 298.008H201.459V308.5H199.219ZM213.975 308.681C213.07 308.681 212.285 308.482 211.621 308.083C210.957 307.685 210.442 307.128 210.075 306.411C209.713 305.695 209.532 304.858 209.532 303.9C209.532 302.942 209.713 302.103 210.075 301.382C210.442 300.662 210.957 300.103 211.621 299.704C212.285 299.306 213.07 299.107 213.975 299.107C214.881 299.107 215.666 299.306 216.33 299.704C216.994 300.103 217.507 300.662 217.869 301.382C218.235 302.103 218.418 302.942 218.418 303.9C218.418 304.858 218.235 305.695 217.869 306.411C217.507 307.128 216.994 307.685 216.33 308.083C215.666 308.482 214.881 308.681 213.975 308.681ZM213.987 306.93C214.478 306.93 214.889 306.796 215.219 306.526C215.549 306.252 215.794 305.886 215.955 305.427C216.12 304.968 216.203 304.457 216.203 303.894C216.203 303.326 216.12 302.813 215.955 302.354C215.794 301.892 215.549 301.523 215.219 301.25C214.889 300.976 214.478 300.839 213.987 300.839C213.484 300.839 213.066 300.976 212.732 301.25C212.402 301.523 212.154 301.892 211.989 302.354C211.828 302.813 211.748 303.326 211.748 303.894C211.748 304.457 211.828 304.968 211.989 305.427C212.154 305.886 212.402 306.252 212.732 306.526C213.066 306.796 213.484 306.93 213.987 306.93ZM227.602 301.678L225.61 301.896C225.554 301.694 225.455 301.505 225.314 301.328C225.177 301.151 224.992 301.008 224.759 300.9C224.525 300.791 224.24 300.737 223.901 300.737C223.447 300.737 223.064 300.835 222.754 301.032C222.449 301.23 222.298 301.485 222.302 301.799C222.298 302.069 222.396 302.288 222.597 302.457C222.803 302.626 223.141 302.765 223.612 302.874L225.193 303.212C226.071 303.401 226.723 303.701 227.149 304.111C227.58 304.522 227.797 305.059 227.801 305.723C227.797 306.307 227.626 306.822 227.288 307.268C226.954 307.711 226.489 308.057 225.894 308.307C225.298 308.556 224.614 308.681 223.841 308.681C222.706 308.681 221.793 308.444 221.1 307.969C220.408 307.49 219.996 306.824 219.863 305.971L221.994 305.765C222.09 306.184 222.296 306.5 222.61 306.713C222.923 306.926 223.332 307.033 223.835 307.033C224.354 307.033 224.771 306.926 225.085 306.713C225.403 306.5 225.562 306.236 225.562 305.922C225.562 305.657 225.459 305.437 225.254 305.264C225.052 305.091 224.739 304.958 224.312 304.866L222.73 304.534C221.841 304.349 221.183 304.037 220.756 303.598C220.33 303.155 220.118 302.596 220.122 301.92C220.118 301.348 220.273 300.853 220.587 300.435C220.905 300.012 221.346 299.686 221.909 299.457C222.477 299.223 223.131 299.107 223.871 299.107C224.958 299.107 225.813 299.338 226.437 299.801C227.065 300.264 227.453 300.889 227.602 301.678ZM234.234 299.227V300.918H228.903V299.227H234.234ZM230.219 297.006H232.404V305.711C232.404 306.005 232.449 306.23 232.537 306.387C232.63 306.54 232.751 306.645 232.9 306.701C233.048 306.757 233.213 306.786 233.395 306.786C233.531 306.786 233.656 306.775 233.769 306.755C233.886 306.735 233.974 306.717 234.034 306.701L234.403 308.409C234.286 308.45 234.119 308.494 233.902 308.542C233.688 308.591 233.427 308.619 233.117 308.627C232.569 308.643 232.076 308.56 231.638 308.379C231.199 308.194 230.851 307.908 230.593 307.522C230.34 307.136 230.215 306.653 230.219 306.073V297.006ZM236.061 308.5V299.227H238.247V308.5H236.061ZM237.16 297.911C236.814 297.911 236.516 297.797 236.267 297.567C236.017 297.334 235.892 297.054 235.892 296.728C235.892 296.398 236.017 296.118 236.267 295.889C236.516 295.655 236.814 295.539 237.16 295.539C237.51 295.539 237.808 295.655 238.054 295.889C238.303 296.118 238.428 296.398 238.428 296.728C238.428 297.054 238.303 297.334 238.054 297.567C237.808 297.797 237.51 297.911 237.16 297.911ZM244.539 308.681C243.633 308.681 242.848 308.482 242.184 308.083C241.52 307.685 241.005 307.128 240.639 306.411C240.277 305.695 240.096 304.858 240.096 303.9C240.096 302.942 240.277 302.103 240.639 301.382C241.005 300.662 241.52 300.103 242.184 299.704C242.848 299.306 243.633 299.107 244.539 299.107C245.444 299.107 246.229 299.306 246.893 299.704C247.557 300.103 248.07 300.662 248.433 301.382C248.799 302.103 248.982 302.942 248.982 303.9C248.982 304.858 248.799 305.695 248.433 306.411C248.07 307.128 247.557 307.685 246.893 308.083C246.229 308.482 245.444 308.681 244.539 308.681ZM244.551 306.93C245.042 306.93 245.452 306.796 245.782 306.526C246.112 306.252 246.358 305.886 246.519 305.427C246.684 304.968 246.766 304.457 246.766 303.894C246.766 303.326 246.684 302.813 246.519 302.354C246.358 301.892 246.112 301.523 245.782 301.25C245.452 300.976 245.042 300.839 244.551 300.839C244.048 300.839 243.629 300.976 243.295 301.25C242.965 301.523 242.718 301.892 242.553 302.354C242.392 302.813 242.311 303.326 242.311 303.894C242.311 304.457 242.392 304.968 242.553 305.427C242.718 305.886 242.965 306.252 243.295 306.526C243.629 306.796 244.048 306.93 244.551 306.93ZM253.022 303.067V308.5H250.837V299.227H252.926V300.803H253.034C253.247 300.284 253.588 299.871 254.054 299.565C254.525 299.259 255.107 299.107 255.799 299.107C256.439 299.107 256.996 299.243 257.471 299.517C257.95 299.791 258.321 300.187 258.582 300.706C258.848 301.225 258.979 301.855 258.975 302.596V308.5H256.789V302.934C256.789 302.314 256.628 301.829 256.306 301.479C255.988 301.129 255.548 300.954 254.984 300.954C254.602 300.954 254.262 301.038 253.964 301.207C253.67 301.372 253.439 301.612 253.27 301.926C253.105 302.24 253.022 302.62 253.022 303.067Z" fill="#0009FF"/>
<rect x="360" y="278" width="48" height="48" rx="24" fill="#0009FF"/>
<path d="M392.781 302.531L386.031 309.281C385.89 309.422 385.699 309.501 385.5 309.501C385.301 309.501 385.11 309.422 384.969 309.281C384.829 309.14 384.75 308.949 384.75 308.75C384.75 308.551 384.829 308.361 384.969 308.22L390.44 302.75H375.75C375.551 302.75 375.36 302.671 375.22 302.531C375.079 302.39 375 302.199 375 302C375 301.802 375.079 301.611 375.22 301.47C375.36 301.329 375.551 301.25 375.75 301.25H390.44L384.969 295.781C384.829 295.64 384.75 295.449 384.75 295.25C384.75 295.051 384.829 294.861 384.969 294.72C385.11 294.579 385.301 294.5 385.5 294.5C385.699 294.5 385.89 294.579 386.031 294.72L392.781 301.47C392.85 301.539 392.906 301.622 392.943 301.713C392.981 301.804 393.001 301.902 393.001 302C393.001 302.099 392.981 302.197 392.943 302.288C392.906 302.379 392.85 302.461 392.781 302.531Z" fill="white"/>
<rect x="252" y="208" width="230" height="56" rx="28" fill="white"/>
<path d="M269.219 242.5V230.136H273.856C274.806 230.136 275.603 230.313 276.246 230.668C276.894 231.022 277.383 231.509 277.713 232.129C278.047 232.744 278.214 233.445 278.214 234.229C278.214 235.022 278.047 235.727 277.713 236.342C277.379 236.958 276.886 237.443 276.234 237.797C275.582 238.147 274.779 238.322 273.826 238.322H270.753V236.481H273.524C274.079 236.481 274.534 236.385 274.888 236.191C275.242 235.998 275.504 235.733 275.673 235.395C275.846 235.056 275.933 234.668 275.933 234.229C275.933 233.791 275.846 233.404 275.673 233.07C275.504 232.736 275.24 232.477 274.882 232.292C274.528 232.102 274.071 232.008 273.512 232.008H271.459V242.5H269.219ZM283.975 242.681C283.07 242.681 282.285 242.482 281.621 242.083C280.957 241.685 280.442 241.128 280.075 240.411C279.713 239.695 279.532 238.858 279.532 237.9C279.532 236.942 279.713 236.103 280.075 235.382C280.442 234.662 280.957 234.103 281.621 233.704C282.285 233.306 283.07 233.107 283.975 233.107C284.881 233.107 285.666 233.306 286.33 233.704C286.994 234.103 287.507 234.662 287.869 235.382C288.235 236.103 288.418 236.942 288.418 237.9C288.418 238.858 288.235 239.695 287.869 240.411C287.507 241.128 286.994 241.685 286.33 242.083C285.666 242.482 284.881 242.681 283.975 242.681ZM283.987 240.93C284.478 240.93 284.889 240.796 285.219 240.526C285.549 240.252 285.794 239.886 285.955 239.427C286.12 238.968 286.203 238.457 286.203 237.894C286.203 237.326 286.12 236.813 285.955 236.354C285.794 235.892 285.549 235.523 285.219 235.25C284.889 234.976 284.478 234.839 283.987 234.839C283.484 234.839 283.066 234.976 282.732 235.25C282.402 235.523 282.154 235.892 281.989 236.354C281.828 236.813 281.748 237.326 281.748 237.894C281.748 238.457 281.828 238.968 281.989 239.427C282.154 239.886 282.402 240.252 282.732 240.526C283.066 240.796 283.484 240.93 283.987 240.93ZM297.602 235.678L295.61 235.896C295.554 235.694 295.455 235.505 295.314 235.328C295.177 235.151 294.992 235.008 294.759 234.9C294.525 234.791 294.24 234.737 293.901 234.737C293.447 234.737 293.064 234.835 292.754 235.032C292.449 235.23 292.298 235.485 292.302 235.799C292.298 236.069 292.396 236.288 292.597 236.457C292.803 236.626 293.141 236.765 293.612 236.874L295.193 237.212C296.071 237.401 296.723 237.701 297.149 238.111C297.58 238.522 297.797 239.059 297.801 239.723C297.797 240.307 297.626 240.822 297.288 241.268C296.954 241.711 296.489 242.057 295.894 242.307C295.298 242.556 294.614 242.681 293.841 242.681C292.706 242.681 291.793 242.444 291.1 241.969C290.408 241.49 289.996 240.824 289.863 239.971L291.994 239.765C292.09 240.184 292.296 240.5 292.61 240.713C292.923 240.926 293.332 241.033 293.835 241.033C294.354 241.033 294.771 240.926 295.085 240.713C295.403 240.5 295.562 240.236 295.562 239.922C295.562 239.657 295.459 239.437 295.254 239.264C295.052 239.091 294.739 238.958 294.312 238.866L292.73 238.534C291.841 238.349 291.183 238.037 290.756 237.598C290.33 237.155 290.118 236.596 290.122 235.92C290.118 235.348 290.273 234.853 290.587 234.435C290.905 234.012 291.346 233.686 291.909 233.457C292.477 233.223 293.131 233.107 293.871 233.107C294.958 233.107 295.813 233.338 296.437 233.801C297.065 234.264 297.453 234.889 297.602 235.678ZM304.234 233.227V234.918H298.903V233.227H304.234ZM300.219 231.006H302.404V239.711C302.404 240.005 302.449 240.23 302.537 240.387C302.63 240.54 302.751 240.645 302.9 240.701C303.048 240.757 303.213 240.786 303.395 240.786C303.531 240.786 303.656 240.775 303.769 240.755C303.886 240.735 303.974 240.717 304.034 240.701L304.403 242.409C304.286 242.45 304.119 242.494 303.902 242.542C303.688 242.591 303.427 242.619 303.117 242.627C302.569 242.643 302.076 242.56 301.638 242.379C301.199 242.194 300.851 241.908 300.593 241.522C300.34 241.136 300.215 240.653 300.219 240.073V231.006ZM306.061 242.5V233.227H308.247V242.5H306.061ZM307.16 231.911C306.814 231.911 306.516 231.797 306.267 231.567C306.017 231.334 305.892 231.054 305.892 230.728C305.892 230.398 306.017 230.118 306.267 229.889C306.516 229.655 306.814 229.539 307.16 229.539C307.51 229.539 307.808 229.655 308.054 229.889C308.303 230.118 308.428 230.398 308.428 230.728C308.428 231.054 308.303 231.334 308.054 231.567C307.808 231.797 307.51 231.911 307.16 231.911ZM314.539 242.681C313.633 242.681 312.848 242.482 312.184 242.083C311.52 241.685 311.005 241.128 310.639 240.411C310.277 239.695 310.096 238.858 310.096 237.9C310.096 236.942 310.277 236.103 310.639 235.382C311.005 234.662 311.52 234.103 312.184 233.704C312.848 233.306 313.633 233.107 314.539 233.107C315.444 233.107 316.229 233.306 316.893 233.704C317.557 234.103 318.07 234.662 318.433 235.382C318.799 236.103 318.982 236.942 318.982 237.9C318.982 238.858 318.799 239.695 318.433 240.411C318.07 241.128 317.557 241.685 316.893 242.083C316.229 242.482 315.444 242.681 314.539 242.681ZM314.551 240.93C315.042 240.93 315.452 240.796 315.782 240.526C316.112 240.252 316.358 239.886 316.519 239.427C316.684 238.968 316.766 238.457 316.766 237.894C316.766 237.326 316.684 236.813 316.519 236.354C316.358 235.892 316.112 235.523 315.782 235.25C315.452 234.976 315.042 234.839 314.551 234.839C314.048 234.839 313.629 234.976 313.295 235.25C312.965 235.523 312.718 235.892 312.553 236.354C312.392 236.813 312.311 237.326 312.311 237.894C312.311 238.457 312.392 238.968 312.553 239.427C312.718 239.886 312.965 240.252 313.295 240.526C313.629 240.796 314.048 240.93 314.551 240.93ZM323.022 237.067V242.5H320.837V233.227H322.926V234.803H323.034C323.247 234.284 323.588 233.871 324.054 233.565C324.525 233.259 325.107 233.107 325.799 233.107C326.439 233.107 326.996 233.243 327.471 233.517C327.95 233.791 328.321 234.187 328.582 234.706C328.848 235.225 328.979 235.855 328.975 236.596V242.5H326.789V236.934C326.789 236.314 326.628 235.829 326.306 235.479C325.988 235.129 325.548 234.954 324.984 234.954C324.602 234.954 324.262 235.038 323.964 235.207C323.67 235.372 323.439 235.612 323.27 235.926C323.105 236.24 323.022 236.62 323.022 237.067Z" fill="#0009FF"/>
<rect x="430" y="212" width="48" height="48" rx="24" fill="#0009FF"/>
<path d="M462.781 236.531L456.031 243.281C455.89 243.422 455.699 243.501 455.5 243.501C455.301 243.501 455.11 243.422 454.969 243.281C454.829 243.14 454.75 242.949 454.75 242.75C454.75 242.551 454.829 242.361 454.969 242.22L460.44 236.75H445.75C445.551 236.75 445.36 236.671 445.22 236.531C445.079 236.39 445 236.199 445 236C445 235.802 445.079 235.611 445.22 235.47C445.36 235.329 445.551 235.25 445.75 235.25H460.44L454.969 229.781C454.829 229.64 454.75 229.449 454.75 229.25C454.75 229.051 454.829 228.861 454.969 228.72C455.11 228.579 455.301 228.5 455.5 228.5C455.699 228.5 455.89 228.579 456.031 228.72L462.781 235.47C462.85 235.539 462.906 235.622 462.943 235.713C462.981 235.804 463.001 235.902 463.001 236C463.001 236.099 462.981 236.197 462.943 236.288C462.906 236.379 462.85 236.461 462.781 236.531Z" fill="white"/>
<rect x="10" y="76" width="161" height="56" rx="28" fill="white"/>
<path d="M27.2195 110.5V98.1364H31.8558C32.8056 98.1364 33.6025 98.3134 34.2464 98.6676C34.8944 99.0218 35.3834 99.5088 35.7134 100.129C36.0475 100.744 36.2145 101.445 36.2145 102.229C36.2145 103.022 36.0475 103.727 35.7134 104.342C35.3794 104.958 34.8864 105.443 34.2344 105.797C33.5824 106.147 32.7795 106.322 31.8256 106.322H28.7528V104.481H31.5238C32.0792 104.481 32.534 104.385 32.8881 104.191C33.2423 103.998 33.5039 103.733 33.6729 103.395C33.846 103.056 33.9325 102.668 33.9325 102.229C33.9325 101.791 33.846 101.404 33.6729 101.07C33.5039 100.736 33.2403 100.477 32.8821 100.292C32.5279 100.102 32.0711 100.008 31.5117 100.008H29.4592V110.5H27.2195ZM41.9752 110.681C41.0697 110.681 40.2849 110.482 39.6208 110.083C38.9568 109.685 38.4416 109.128 38.0754 108.411C37.7132 107.695 37.532 106.858 37.532 105.9C37.532 104.942 37.7132 104.103 38.0754 103.382C38.4416 102.662 38.9568 102.103 39.6208 101.704C40.2849 101.306 41.0697 101.107 41.9752 101.107C42.8808 101.107 43.6656 101.306 44.3296 101.704C44.9937 102.103 45.5068 102.662 45.8691 103.382C46.2353 104.103 46.4184 104.942 46.4184 105.9C46.4184 106.858 46.2353 107.695 45.8691 108.411C45.5068 109.128 44.9937 109.685 44.3296 110.083C43.6656 110.482 42.8808 110.681 41.9752 110.681ZM41.9873 108.93C42.4783 108.93 42.8888 108.796 43.2188 108.526C43.5489 108.252 43.7944 107.886 43.9553 107.427C44.1204 106.968 44.2029 106.457 44.2029 105.894C44.2029 105.326 44.1204 104.813 43.9553 104.354C43.7944 103.892 43.5489 103.523 43.2188 103.25C42.8888 102.976 42.4783 102.839 41.9873 102.839C41.4842 102.839 41.0657 102.976 40.7316 103.25C40.4016 103.523 40.1541 103.892 39.9891 104.354C39.8281 104.813 39.7476 105.326 39.7476 105.894C39.7476 106.457 39.8281 106.968 39.9891 107.427C40.1541 107.886 40.4016 108.252 40.7316 108.526C41.0657 108.796 41.4842 108.93 41.9873 108.93ZM55.6021 103.678L53.6099 103.896C53.5536 103.694 53.455 103.505 53.3141 103.328C53.1773 103.151 52.9921 103.008 52.7587 102.9C52.5253 102.791 52.2395 102.737 51.9015 102.737C51.4467 102.737 51.0643 102.835 50.7544 103.032C50.4486 103.23 50.2976 103.485 50.3017 103.799C50.2976 104.069 50.3962 104.288 50.5975 104.457C50.8027 104.626 51.1408 104.765 51.6117 104.874L53.1934 105.212C54.0707 105.401 54.7227 105.701 55.1493 106.111C55.58 106.522 55.7973 107.059 55.8013 107.723C55.7973 108.307 55.6262 108.822 55.2882 109.268C54.9541 109.711 54.4893 110.057 53.8936 110.307C53.298 110.556 52.6138 110.681 51.8411 110.681C50.7061 110.681 49.7926 110.444 49.1003 109.969C48.4081 109.49 47.9956 108.824 47.8627 107.971L49.9938 107.765C50.0904 108.184 50.2956 108.5 50.6096 108.713C50.9235 108.926 51.332 109.033 51.835 109.033C52.3542 109.033 52.7708 108.926 53.0847 108.713C53.4026 108.5 53.5616 108.236 53.5616 107.922C53.5616 107.657 53.459 107.437 53.2537 107.264C53.0525 107.091 52.7386 106.958 52.312 106.866L50.7303 106.534C49.8409 106.349 49.1828 106.037 48.7562 105.598C48.3296 105.155 48.1183 104.596 48.1223 103.92C48.1183 103.348 48.2733 102.853 48.5872 102.435C48.9051 102.012 49.3458 101.686 49.9093 101.457C50.4767 101.223 51.1307 101.107 51.8713 101.107C52.9579 101.107 53.8132 101.338 54.437 101.801C55.0648 102.264 55.4532 102.889 55.6021 103.678ZM62.2337 101.227V102.918H56.9031V101.227H62.2337ZM58.2191 99.0057H60.4045V107.711C60.4045 108.005 60.4487 108.23 60.5373 108.387C60.6299 108.54 60.7506 108.645 60.8995 108.701C61.0484 108.757 61.2134 108.786 61.3945 108.786C61.5314 108.786 61.6561 108.775 61.7688 108.755C61.8855 108.735 61.9741 108.717 62.0344 108.701L62.4027 110.409C62.286 110.45 62.119 110.494 61.9016 110.542C61.6883 110.591 61.4267 110.619 61.1168 110.627C60.5695 110.643 60.0765 110.56 59.6378 110.379C59.1991 110.194 58.851 109.908 58.5934 109.522C58.3398 109.136 58.2151 108.653 58.2191 108.073V99.0057ZM64.0613 110.5V101.227H66.2467V110.5H64.0613ZM65.1601 99.9112C64.814 99.9112 64.5161 99.7965 64.2666 99.5671C64.0171 99.3337 63.8923 99.054 63.8923 98.728C63.8923 98.398 64.0171 98.1183 64.2666 97.8888C64.5161 97.6554 64.814 97.5387 65.1601 97.5387C65.5102 97.5387 65.808 97.6554 66.0535 97.8888C66.3031 98.1183 66.4278 98.398 66.4278 98.728C66.4278 99.054 66.3031 99.3337 66.0535 99.5671C65.808 99.7965 65.5102 99.9112 65.1601 99.9112ZM72.5387 110.681C71.6332 110.681 70.8484 110.482 70.1843 110.083C69.5202 109.685 69.0051 109.128 68.6388 108.411C68.2766 107.695 68.0955 106.858 68.0955 105.9C68.0955 104.942 68.2766 104.103 68.6388 103.382C69.0051 102.662 69.5202 102.103 70.1843 101.704C70.8484 101.306 71.6332 101.107 72.5387 101.107C73.4442 101.107 74.229 101.306 74.8931 101.704C75.5572 102.103 76.0703 102.662 76.4325 103.382C76.7988 104.103 76.9819 104.942 76.9819 105.9C76.9819 106.858 76.7988 107.695 76.4325 108.411C76.0703 109.128 75.5572 109.685 74.8931 110.083C74.229 110.482 73.4442 110.681 72.5387 110.681ZM72.5508 108.93C73.0418 108.93 73.4523 108.796 73.7823 108.526C74.1123 108.252 74.3578 107.886 74.5188 107.427C74.6838 106.968 74.7663 106.457 74.7663 105.894C74.7663 105.326 74.6838 104.813 74.5188 104.354C74.3578 103.892 74.1123 103.523 73.7823 103.25C73.4523 102.976 73.0418 102.839 72.5508 102.839C72.0477 102.839 71.6291 102.976 71.2951 103.25C70.9651 103.523 70.7176 103.892 70.5526 104.354C70.3916 104.813 70.3111 105.326 70.3111 105.894C70.3111 106.457 70.3916 106.968 70.5526 107.427C70.7176 107.886 70.9651 108.252 71.2951 108.526C71.6291 108.796 72.0477 108.93 72.5508 108.93ZM81.0221 105.067V110.5H78.8367V101.227H80.9255V102.803H81.0342C81.2475 102.284 81.5876 101.871 82.0544 101.565C82.5253 101.259 83.1069 101.107 83.7991 101.107C84.439 101.107 84.9964 101.243 85.4713 101.517C85.9503 101.791 86.3205 102.187 86.5821 102.706C86.8477 103.225 86.9785 103.855 86.9745 104.596V110.5H84.7892V104.934C84.7892 104.314 84.6282 103.829 84.3062 103.479C83.9883 103.129 83.5476 102.954 82.9841 102.954C82.6018 102.954 82.2617 103.038 81.9639 103.207C81.6701 103.372 81.4387 103.612 81.2696 103.926C81.1046 104.24 81.0221 104.62 81.0221 105.067Z" fill="#0009FF"/>
<rect x="119" y="80" width="48" height="48" rx="24" fill="#0009FF"/>
<path d="M151.781 104.531L145.031 111.281C144.89 111.422 144.699 111.501 144.5 111.501C144.301 111.501 144.11 111.422 143.969 111.281C143.829 111.14 143.75 110.949 143.75 110.75C143.75 110.551 143.829 110.361 143.969 110.22L149.44 104.75H134.75C134.551 104.75 134.36 104.671 134.22 104.531C134.079 104.39 134 104.199 134 104C134 103.802 134.079 103.611 134.22 103.47C134.36 103.329 134.551 103.25 134.75 103.25H149.44L143.969 97.781C143.829 97.6403 143.75 97.4494 143.75 97.2504C143.75 97.0514 143.829 96.8605 143.969 96.7198C144.11 96.5791 144.301 96.5 144.5 96.5C144.699 96.5 144.89 96.5791 145.031 96.7198L151.781 103.47C151.85 103.539 151.906 103.622 151.943 103.713C151.981 103.804 152.001 103.902 152.001 104C152.001 104.099 151.981 104.197 151.943 104.288C151.906 104.379 151.85 104.461 151.781 104.531Z" fill="white"/>
<rect x="10" y="274" width="161" height="56" rx="28" fill="white"/>
<path d="M27.2195 308.5V296.136H31.8558C32.8056 296.136 33.6025 296.313 34.2464 296.668C34.8944 297.022 35.3834 297.509 35.7134 298.129C36.0475 298.744 36.2145 299.445 36.2145 300.229C36.2145 301.022 36.0475 301.727 35.7134 302.342C35.3794 302.958 34.8864 303.443 34.2344 303.797C33.5824 304.147 32.7795 304.322 31.8256 304.322H28.7528V302.481H31.5238C32.0792 302.481 32.534 302.385 32.8881 302.191C33.2423 301.998 33.5039 301.733 33.6729 301.395C33.846 301.056 33.9325 300.668 33.9325 300.229C33.9325 299.791 33.846 299.404 33.6729 299.07C33.5039 298.736 33.2403 298.477 32.8821 298.292C32.5279 298.102 32.0711 298.008 31.5117 298.008H29.4592V308.5H27.2195ZM41.9752 308.681C41.0697 308.681 40.2849 308.482 39.6208 308.083C38.9568 307.685 38.4416 307.128 38.0754 306.411C37.7132 305.695 37.532 304.858 37.532 303.9C37.532 302.942 37.7132 302.103 38.0754 301.382C38.4416 300.662 38.9568 300.103 39.6208 299.704C40.2849 299.306 41.0697 299.107 41.9752 299.107C42.8808 299.107 43.6656 299.306 44.3296 299.704C44.9937 300.103 45.5068 300.662 45.8691 301.382C46.2353 302.103 46.4184 302.942 46.4184 303.9C46.4184 304.858 46.2353 305.695 45.8691 306.411C45.5068 307.128 44.9937 307.685 44.3296 308.083C43.6656 308.482 42.8808 308.681 41.9752 308.681ZM41.9873 306.93C42.4783 306.93 42.8888 306.796 43.2188 306.526C43.5489 306.252 43.7944 305.886 43.9553 305.427C44.1204 304.968 44.2029 304.457 44.2029 303.894C44.2029 303.326 44.1204 302.813 43.9553 302.354C43.7944 301.892 43.5489 301.523 43.2188 301.25C42.8888 300.976 42.4783 300.839 41.9873 300.839C41.4842 300.839 41.0657 300.976 40.7316 301.25C40.4016 301.523 40.1541 301.892 39.9891 302.354C39.8281 302.813 39.7476 303.326 39.7476 303.894C39.7476 304.457 39.8281 304.968 39.9891 305.427C40.1541 305.886 40.4016 306.252 40.7316 306.526C41.0657 306.796 41.4842 306.93 41.9873 306.93ZM55.6021 301.678L53.6099 301.896C53.5536 301.694 53.455 301.505 53.3141 301.328C53.1773 301.151 52.9921 301.008 52.7587 300.9C52.5253 300.791 52.2395 300.737 51.9015 300.737C51.4467 300.737 51.0643 300.835 50.7544 301.032C50.4486 301.23 50.2976 301.485 50.3017 301.799C50.2976 302.069 50.3962 302.288 50.5975 302.457C50.8027 302.626 51.1408 302.765 51.6117 302.874L53.1934 303.212C54.0707 303.401 54.7227 303.701 55.1493 304.111C55.58 304.522 55.7973 305.059 55.8013 305.723C55.7973 306.307 55.6262 306.822 55.2882 307.268C54.9541 307.711 54.4893 308.057 53.8936 308.307C53.298 308.556 52.6138 308.681 51.8411 308.681C50.7061 308.681 49.7926 308.444 49.1003 307.969C48.4081 307.49 47.9956 306.824 47.8627 305.971L49.9938 305.765C50.0904 306.184 50.2956 306.5 50.6096 306.713C50.9235 306.926 51.332 307.033 51.835 307.033C52.3542 307.033 52.7708 306.926 53.0847 306.713C53.4026 306.5 53.5616 306.236 53.5616 305.922C53.5616 305.657 53.459 305.437 53.2537 305.264C53.0525 305.091 52.7386 304.958 52.312 304.866L50.7303 304.534C49.8409 304.349 49.1828 304.037 48.7562 303.598C48.3296 303.155 48.1183 302.596 48.1223 301.92C48.1183 301.348 48.2733 300.853 48.5872 300.435C48.9051 300.012 49.3458 299.686 49.9093 299.457C50.4767 299.223 51.1307 299.107 51.8713 299.107C52.9579 299.107 53.8132 299.338 54.437 299.801C55.0648 300.264 55.4532 300.889 55.6021 301.678ZM62.2337 299.227V300.918H56.9031V299.227H62.2337ZM58.2191 297.006H60.4045V305.711C60.4045 306.005 60.4487 306.23 60.5373 306.387C60.6299 306.54 60.7506 306.645 60.8995 306.701C61.0484 306.757 61.2134 306.786 61.3945 306.786C61.5314 306.786 61.6561 306.775 61.7688 306.755C61.8855 306.735 61.9741 306.717 62.0344 306.701L62.4027 308.409C62.286 308.45 62.119 308.494 61.9016 308.542C61.6883 308.591 61.4267 308.619 61.1168 308.627C60.5695 308.643 60.0765 308.56 59.6378 308.379C59.1991 308.194 58.851 307.908 58.5934 307.522C58.3398 307.136 58.2151 306.653 58.2191 306.073V297.006ZM64.0613 308.5V299.227H66.2467V308.5H64.0613ZM65.1601 297.911C64.814 297.911 64.5161 297.797 64.2666 297.567C64.0171 297.334 63.8923 297.054 63.8923 296.728C63.8923 296.398 64.0171 296.118 64.2666 295.889C64.5161 295.655 64.814 295.539 65.1601 295.539C65.5102 295.539 65.808 295.655 66.0535 295.889C66.3031 296.118 66.4278 296.398 66.4278 296.728C66.4278 297.054 66.3031 297.334 66.0535 297.567C65.808 297.797 65.5102 297.911 65.1601 297.911ZM72.5387 308.681C71.6332 308.681 70.8484 308.482 70.1843 308.083C69.5202 307.685 69.0051 307.128 68.6388 306.411C68.2766 305.695 68.0955 304.858 68.0955 303.9C68.0955 302.942 68.2766 302.103 68.6388 301.382C69.0051 300.662 69.5202 300.103 70.1843 299.704C70.8484 299.306 71.6332 299.107 72.5387 299.107C73.4442 299.107 74.229 299.306 74.8931 299.704C75.5572 300.103 76.0703 300.662 76.4325 301.382C76.7988 302.103 76.9819 302.942 76.9819 303.9C76.9819 304.858 76.7988 305.695 76.4325 306.411C76.0703 307.128 75.5572 307.685 74.8931 308.083C74.229 308.482 73.4442 308.681 72.5387 308.681ZM72.5508 306.93C73.0418 306.93 73.4523 306.796 73.7823 306.526C74.1123 306.252 74.3578 305.886 74.5188 305.427C74.6838 304.968 74.7663 304.457 74.7663 303.894C74.7663 303.326 74.6838 302.813 74.5188 302.354C74.3578 301.892 74.1123 301.523 73.7823 301.25C73.4523 300.976 73.0418 300.839 72.5508 300.839C72.0477 300.839 71.6291 300.976 71.2951 301.25C70.9651 301.523 70.7176 301.892 70.5526 302.354C70.3916 302.813 70.3111 303.326 70.3111 303.894C70.3111 304.457 70.3916 304.968 70.5526 305.427C70.7176 305.886 70.9651 306.252 71.2951 306.526C71.6291 306.796 72.0477 306.93 72.5508 306.93ZM81.0221 303.067V308.5H78.8367V299.227H80.9255V300.803H81.0342C81.2475 300.284 81.5876 299.871 82.0544 299.565C82.5253 299.259 83.1069 299.107 83.7991 299.107C84.439 299.107 84.9964 299.243 85.4713 299.517C85.9503 299.791 86.3205 300.187 86.5821 300.706C86.8477 301.225 86.9785 301.855 86.9745 302.596V308.5H84.7892V302.934C84.7892 302.314 84.6282 301.829 84.3062 301.479C83.9883 301.129 83.5476 300.954 82.9841 300.954C82.6018 300.954 82.2617 301.038 81.9639 301.207C81.6701 301.372 81.4387 301.612 81.2696 301.926C81.1046 302.24 81.0221 302.62 81.0221 303.067Z" fill="#0009FF"/>
<rect x="119" y="278" width="48" height="48" rx="24" fill="#0009FF"/>
<path d="M151.781 302.531L145.031 309.281C144.89 309.422 144.699 309.501 144.5 309.501C144.301 309.501 144.11 309.422 143.969 309.281C143.829 309.14 143.75 308.949 143.75 308.75C143.75 308.551 143.829 308.361 143.969 308.22L149.44 302.75H134.75C134.551 302.75 134.36 302.671 134.22 302.531C134.079 302.39 134 302.199 134 302C134 301.802 134.079 301.611 134.22 301.47C134.36 301.329 134.551 301.25 134.75 301.25H149.44L143.969 295.781C143.829 295.64 143.75 295.449 143.75 295.25C143.75 295.051 143.829 294.861 143.969 294.72C144.11 294.579 144.301 294.5 144.5 294.5C144.699 294.5 144.89 294.579 145.031 294.72L151.781 301.47C151.85 301.539 151.906 301.622 151.943 301.713C151.981 301.804 152.001 301.902 152.001 302C152.001 302.099 151.981 302.197 151.943 302.288C151.906 302.379 151.85 302.461 151.781 302.531Z" fill="white"/>
</svg>
