<?xml version="1.0" encoding="UTF-8"?>
<svg xmlns="http://www.w3.org/2000/svg" version="1.1" viewBox="0 0 63 64">
  <defs>
    <style>
      .cls-1 {
        fill: #bbbfbb;
      }

      .cls-2 {
        fill: #fff;
      }
    </style>
  </defs>
  <!-- Generator: Adobe Illustrator 28.6.0, SVG Export Plug-In . SVG Version: 1.2.0 Build 709)  -->
  <g>
    <g id="Layer_1">
      <rect class="cls-1" y=".5" width="63" height="63" rx="25.5" ry="25.5"/>
      <g>
        <rect class="cls-2" x="28.6" y="36.5" width="5.8" height="5.8" transform="translate(-18.7 33.8) rotate(-45)"/>
        <path class="cls-2" d="M31.6,34.1l2.9-2.9v-7.6h-5.8v6.2c0,.9.4,1.7,1,2.4l1.9,1.9Z"/>
        <path class="cls-2" d="M30.8,34.8l-6.7-6.7-4.1,4.1,4.3,4.3c.7.7,1.5,1,2.4,1s1.7-.3,2.4-1l1.7-1.7Z"/>
        <path class="cls-2" d="M38.9,27.9l-6.7,6.7,1.8,1.8c.6.6,1.4.9,2.2.9s1.6-.3,2.2-.9l4.5-4.5-4.1-4.1Z"/>
      </g>
    </g>
  </g>
</svg>