<?xml version="1.0" encoding="UTF-8"?>
<svg xmlns="http://www.w3.org/2000/svg" version="1.1" viewBox="0 0 63 64">
  <defs>
    <style>
      .cls-1 {
        fill: #bbbfbb;
      }
    </style>
  </defs>
  <!-- Generator: Adobe Illustrator 28.6.0, SVG Export Plug-In . SVG Version: 1.2.0 Build 709)  -->
  <g>
    <g id="Layer_1">
      <path class="cls-1" d="M37.5.5h-12C11.4.5,0,11.9,0,26v12c0,14.1,11.4,25.5,25.5,25.5h12c14.1,0,25.5-11.4,25.5-25.5v-12C63,11.9,51.6.5,37.5.5ZM28.7,23.6h5.8v7.6l-2.9,2.9-1.9-1.9c-.6-.7-1-1.5-1-2.4v-6.2ZM24.3,36.5l-4.3-4.3,4.1-4.1,6.7,6.7-1.7,1.7c-.7.7-1.5,1-2.4,1s-1.7-.3-2.4-1ZM31.4,43.5l-4.1-4.1,4.1-4.1,4.1,4.1-4.1,4.1ZM38.4,36.4c-.6.6-1.4.9-2.2.9s-1.6-.3-2.2-.9l-1.8-1.8,6.7-6.7,4,4-4.5,4.5Z"/>
    </g>
  </g>
</svg>