<svg width="63" height="64" viewBox="0 0 63 64" fill="none" xmlns="http://www.w3.org/2000/svg">
<rect y="0.5" width="63" height="63" rx="25.5" fill="#BBBFBB"/>
<path d="M31.4493 42.8027L28.0762 39.4297L31.4493 36.0566L34.8224 39.4297L31.4493 42.8027Z" fill="white" stroke="white"/>
<mask id="mask0_1424_808" style="mask-type:luminance" maskUnits="userSpaceOnUse" x="27" y="35" width="9" height="9">
<path d="M31.4513 42.8027L28.0782 39.4297L31.4513 36.0566L34.8243 39.4297L31.4513 42.8027Z" fill="white" stroke="white"/>
</mask>
<g mask="url(#mask0_1424_808)">
<mask id="path-4-inside-1_1424_808" fill="white">
<path d="M31.5313 43.4298L27.4511 39.3496L27.294 39.5068L31.3741 43.5869L31.5313 43.4298ZM35.4513 39.3496L31.3712 43.4298L31.5283 43.5869L35.6085 39.5068L35.4513 39.3496ZM31.3712 35.4296L35.4513 39.5097L35.6085 39.3526L31.5283 35.2724L31.3712 35.4296ZM27.4511 39.5098L31.5313 35.4296L31.3741 35.2724L27.294 39.3526L27.4511 39.5098ZM31.4512 43.5098L31.3712 43.5899L31.4512 43.67L31.5313 43.5899L31.4512 43.5098ZM35.5314 39.4297L35.6114 39.5097L35.6915 39.4297L35.6114 39.3496L35.5314 39.4297ZM31.4512 35.3495L31.5313 35.2695L31.4512 35.1894L31.3712 35.2695L31.4512 35.3495ZM27.3711 39.4297L27.291 39.3496L27.2109 39.4297L27.291 39.5097L27.3711 39.4297Z"/>
</mask>
<path d="M31.5313 43.4298L27.4511 39.3496L27.294 39.5068L31.3741 43.5869L31.5313 43.4298ZM35.4513 39.3496L31.3712 43.4298L31.5283 43.5869L35.6085 39.5068L35.4513 39.3496ZM31.3712 35.4296L35.4513 39.5097L35.6085 39.3526L31.5283 35.2724L31.3712 35.4296ZM27.4511 39.5098L31.5313 35.4296L31.3741 35.2724L27.294 39.3526L27.4511 39.5098ZM31.4512 43.5098L31.3712 43.5899L31.4512 43.67L31.5313 43.5899L31.4512 43.5098ZM35.5314 39.4297L35.6114 39.5097L35.6915 39.4297L35.6114 39.3496L35.5314 39.4297ZM31.4512 35.3495L31.5313 35.2695L31.4512 35.1894L31.3712 35.2695L31.4512 35.3495ZM27.3711 39.4297L27.291 39.3496L27.2109 39.4297L27.291 39.5097L27.3711 39.4297Z" fill="#FFFDFD"/>
<path d="M31.5313 43.4298L32.2384 44.1369L32.9455 43.4298L32.2384 42.7227L31.5313 43.4298ZM27.4511 39.3496L28.1582 38.6425L27.4511 37.9354L26.744 38.6425L27.4511 39.3496ZM27.294 39.5068L26.5869 38.7997L25.8798 39.5068L26.5869 40.2139L27.294 39.5068ZM31.3741 43.5869L30.667 44.294L31.3741 45.0012L32.0812 44.294L31.3741 43.5869ZM35.4513 39.3496L36.1584 38.6425L35.4513 37.9354L34.7442 38.6425L35.4513 39.3496ZM31.3712 43.4298L30.664 42.7227L29.9569 43.4298L30.664 44.1369L31.3712 43.4298ZM31.5283 43.5869L30.8212 44.2941L31.5283 45.0012L32.2354 44.2941L31.5283 43.5869ZM35.6085 39.5068L36.3156 40.2139L37.0227 39.5068L36.3156 38.7997L35.6085 39.5068ZM31.3712 35.4296L30.6641 34.7225L29.9569 35.4296L30.6641 36.1367L31.3712 35.4296ZM35.4513 39.5097L34.7442 40.2169L35.4513 40.924L36.1584 40.2169L35.4513 39.5097ZM35.6085 39.3526L36.3156 40.0597L37.0227 39.3526L36.3156 38.6455L35.6085 39.3526ZM31.5283 35.2724L32.2354 34.5653L31.5283 33.8582L30.8212 34.5653L31.5283 35.2724ZM27.4511 39.5098L26.744 40.2169L27.4511 40.924L28.1582 40.2169L27.4511 39.5098ZM31.5313 35.4296L32.2384 36.1367L32.9455 35.4296L32.2384 34.7225L31.5313 35.4296ZM31.3741 35.2724L32.0812 34.5653L31.3741 33.8582L30.667 34.5653L31.3741 35.2724ZM27.294 39.3526L26.5869 38.6455L25.8797 39.3526L26.5869 40.0597L27.294 39.3526ZM31.4512 43.5098L32.1583 42.8027L31.4512 42.0956L30.7441 42.8027L31.4512 43.5098ZM31.3712 43.5899L30.6641 42.8828L29.9569 43.5899L30.6641 44.297L31.3712 43.5899ZM31.4512 43.67L30.7441 44.3771L31.4512 45.0842L32.1583 44.3771L31.4512 43.67ZM31.5313 43.5899L32.2384 44.297L32.9455 43.5899L32.2384 42.8828L31.5313 43.5899ZM35.5314 39.4297L34.8243 38.7226L34.1172 39.4297L34.8243 40.1368L35.5314 39.4297ZM35.6114 39.5097L34.9043 40.2169L35.6114 40.924L36.3185 40.2169L35.6114 39.5097ZM35.6915 39.4297L36.3986 40.1368L37.1057 39.4297L36.3986 38.7226L35.6915 39.4297ZM35.6114 39.3496L36.3186 38.6425L35.6114 37.9354L34.9043 38.6425L35.6114 39.3496ZM31.4512 35.3495L30.7441 36.0566L31.4512 36.7637L32.1583 36.0566L31.4512 35.3495ZM31.5313 35.2695L32.2384 35.9766L32.9455 35.2695L32.2384 34.5624L31.5313 35.2695ZM31.4512 35.1894L32.1583 34.4823L31.4512 33.7752L30.7441 34.4823L31.4512 35.1894ZM31.3712 35.2695L30.6641 34.5624L29.9569 35.2695L30.6641 35.9766L31.3712 35.2695ZM27.3711 39.4297L28.0782 40.1368L28.7853 39.4297L28.0782 38.7226L27.3711 39.4297ZM27.291 39.3496L27.9981 38.6425L27.291 37.9354L26.5839 38.6425L27.291 39.3496ZM27.2109 39.4297L26.5038 38.7226L25.7967 39.4297L26.5038 40.1368L27.2109 39.4297ZM27.291 39.5097L26.5839 40.2169L27.291 40.924L27.9981 40.2169L27.291 39.5097ZM32.2384 42.7227L28.1582 38.6425L26.744 40.0567L30.8242 44.1369L32.2384 42.7227ZM26.744 38.6425L26.5869 38.7997L28.0011 40.2139L28.1582 40.0567L26.744 38.6425ZM26.5869 40.2139L30.667 44.294L32.0812 42.8798L28.0011 38.7997L26.5869 40.2139ZM32.0812 44.294L32.2384 44.1369L30.8242 42.7227L30.667 42.8798L32.0812 44.294ZM34.7442 38.6425L30.664 42.7227L32.0783 44.1369L36.1584 40.0567L34.7442 38.6425ZM30.664 44.1369L30.8212 44.2941L32.2354 42.8798L32.0783 42.7227L30.664 44.1369ZM32.2354 44.2941L36.3156 40.2139L34.9014 38.7997L30.8212 42.8798L32.2354 44.2941ZM36.3156 38.7997L36.1584 38.6425L34.7442 40.0567L34.9014 40.2139L36.3156 38.7997ZM30.6641 36.1367L34.7442 40.2169L36.1584 38.8026L32.0783 34.7225L30.6641 36.1367ZM36.1584 40.2169L36.3156 40.0597L34.9014 38.6455L34.7442 38.8026L36.1584 40.2169ZM36.3156 38.6455L32.2354 34.5653L30.8212 35.9795L34.9014 40.0597L36.3156 38.6455ZM30.8212 34.5653L30.6641 34.7225L32.0783 36.1367L32.2354 35.9795L30.8212 34.5653ZM28.1582 40.2169L32.2384 36.1367L30.8242 34.7225L26.744 38.8026L28.1582 40.2169ZM32.2384 34.7225L32.0812 34.5653L30.667 35.9795L30.8242 36.1367L32.2384 34.7225ZM30.667 34.5653L26.5869 38.6455L28.0011 40.0597L32.0812 35.9795L30.667 34.5653ZM26.5869 40.0597L26.744 40.2169L28.1582 38.8026L28.0011 38.6455L26.5869 40.0597ZM30.7441 42.8027L30.6641 42.8828L32.0783 44.297L32.1583 44.217L30.7441 42.8027ZM30.6641 44.297L30.7441 44.3771L32.1583 42.9629L32.0783 42.8828L30.6641 44.297ZM32.1583 44.3771L32.2384 44.297L30.8242 42.8828L30.7441 42.9629L32.1583 44.3771ZM32.2384 42.8828L32.1583 42.8027L30.7441 44.217L30.8242 44.297L32.2384 42.8828ZM34.8243 40.1368L34.9043 40.2169L36.3185 38.8026L36.2385 38.7226L34.8243 40.1368ZM36.3185 40.2169L36.3986 40.1368L34.9844 38.7226L34.9043 38.8026L36.3185 40.2169ZM36.3986 38.7226L36.3186 38.6425L34.9043 40.0567L34.9844 40.1368L36.3986 38.7226ZM34.9043 38.6425L34.8243 38.7226L36.2385 40.1368L36.3186 40.0567L34.9043 38.6425ZM32.1583 36.0566L32.2384 35.9766L30.8242 34.5624L30.7441 34.6424L32.1583 36.0566ZM32.2384 34.5624L32.1583 34.4823L30.7441 35.8965L30.8242 35.9766L32.2384 34.5624ZM30.7441 34.4823L30.6641 34.5624L32.0783 35.9766L32.1583 35.8965L30.7441 34.4823ZM30.6641 35.9766L30.7441 36.0566L32.1583 34.6424L32.0783 34.5624L30.6641 35.9766ZM28.0782 38.7226L27.9981 38.6425L26.5839 40.0567L26.6639 40.1368L28.0782 38.7226ZM26.5839 38.6425L26.5038 38.7226L27.918 40.1368L27.9981 40.0567L26.5839 38.6425ZM26.5038 40.1368L26.5839 40.2169L27.9981 38.8026L27.918 38.7226L26.5038 40.1368ZM27.9981 40.2169L28.0782 40.1368L26.6639 38.7226L26.5839 38.8026L27.9981 40.2169Z" fill="white" mask="url(#path-4-inside-1_1424_808)"/>
</g>
<path d="M33.9614 24.0609L33.9614 30.9745L31.5881 33.3478L30.032 31.7917C29.4949 31.2546 29.1938 30.5249 29.191 29.7633C29.191 29.7631 29.191 29.7628 29.191 29.7625L29.191 24.0609L33.9614 24.0609Z" fill="white" stroke="white"/>
<mask id="path-7-inside-2_1424_808" fill="white">
<path d="M28.6943 23.675L34.4647 23.675L34.4647 23.4496L28.6943 23.4496L28.6943 23.675ZM28.807 29.7655L28.807 23.5623L28.5817 23.5623L28.5817 29.7655L28.807 29.7655ZM29.7618 32.0666C29.151 31.4557 28.81 30.6284 28.807 29.7655L28.5817 29.7655C28.5817 30.6907 28.9464 31.5714 29.5987 32.2237L29.7559 32.0666L29.7618 32.0666ZM31.6714 33.9762L29.7618 32.0666L29.6047 32.2237L31.5143 34.1333L31.6714 33.9762ZM34.3876 31.0999L31.5143 33.9732L31.6714 34.1304L34.5447 31.2571L34.3876 31.0999ZM34.352 23.5623L34.352 31.1829L34.5774 31.1829L34.5803 23.5652L34.355 23.5652L34.352 23.5623ZM28.6943 23.5623L28.6943 23.4496L28.5817 23.4496L28.5817 23.5623L28.6943 23.5623ZM31.5914 34.0562L31.5113 34.1363L31.5914 34.2164L31.6714 34.1363L31.5914 34.0562ZM34.4676 31.18L34.5477 31.26L34.5803 31.2274L34.5803 31.18L34.4676 31.18ZM34.4647 23.5623L34.5773 23.5623L34.5773 23.4496L34.4647 23.4496L34.4647 23.5623Z"/>
</mask>
<path d="M28.6943 23.675L34.4647 23.675L34.4647 23.4496L28.6943 23.4496L28.6943 23.675ZM28.807 29.7655L28.807 23.5623L28.5817 23.5623L28.5817 29.7655L28.807 29.7655ZM29.7618 32.0666C29.151 31.4557 28.81 30.6284 28.807 29.7655L28.5817 29.7655C28.5817 30.6907 28.9464 31.5714 29.5987 32.2237L29.7559 32.0666L29.7618 32.0666ZM31.6714 33.9762L29.7618 32.0666L29.6047 32.2237L31.5143 34.1333L31.6714 33.9762ZM34.3876 31.0999L31.5143 33.9732L31.6714 34.1304L34.5447 31.2571L34.3876 31.0999ZM34.352 23.5623L34.352 31.1829L34.5774 31.1829L34.5803 23.5652L34.355 23.5652L34.352 23.5623ZM28.6943 23.5623L28.6943 23.4496L28.5817 23.4496L28.5817 23.5623L28.6943 23.5623ZM31.5914 34.0562L31.5113 34.1363L31.5914 34.2164L31.6714 34.1363L31.5914 34.0562ZM34.4676 31.18L34.5477 31.26L34.5803 31.2274L34.5803 31.18L34.4676 31.18ZM34.4647 23.5623L34.5773 23.5623L34.5773 23.4496L34.4647 23.4496L34.4647 23.5623Z" fill="#FFFDFD"/>
<path d="M28.5817 29.7655L28.5817 29.2655L28.5816 30.2655L28.5817 29.7655ZM28.5816 30.2655L28.807 30.2655L28.807 29.2655L28.5817 29.2655L28.5816 30.2655ZM28.6943 29.2655L28.5817 29.2655L28.5817 30.2655L28.6943 30.2655L28.6943 29.2655ZM28.6943 23.675L27.6943 23.6749L27.6943 24.675L28.6943 24.675L28.6943 23.675ZM34.4647 23.675L34.4647 24.675L35.4647 24.6749L35.4647 23.6749L34.4647 23.675ZM28.6943 23.4496L28.6943 22.4496L28.6943 22.4496L28.6943 23.4496ZM28.807 29.7655L27.807 29.7655L27.807 29.769L28.807 29.7655ZM28.807 23.5623L29.807 23.5623L29.807 22.5623L28.807 22.5623L28.807 23.5623ZM28.5817 23.5623L27.5817 23.5623L27.5817 23.5623L28.5817 23.5623ZM28.5817 29.7655L29.5817 29.7655L29.5817 29.7655L28.5817 29.7655ZM29.5987 32.2237L28.8916 32.9308L29.5987 33.6379L30.3058 32.9308L29.5987 32.2237ZM29.7559 32.0666L29.7554 31.0666L29.3415 31.0668L29.0488 31.3595L29.7559 32.0666ZM31.6714 33.9762L32.3785 34.6833L33.0856 33.9762L32.3785 33.2691L31.6714 33.9762ZM29.6047 32.2237L28.8975 31.5166L28.1904 32.2237L28.8975 32.9308L29.6047 32.2237ZM31.5143 34.1333L30.8072 34.8404L31.5143 35.5475L32.2214 34.8404L31.5143 34.1333ZM34.3876 31.0999L35.0947 30.3928L34.3876 29.6857L33.6805 30.3928L34.3876 31.0999ZM31.5143 33.9732L30.8072 33.2661L30.1 33.9732L30.8072 34.6803L31.5143 33.9732ZM31.6714 34.1304L30.9643 34.8375L31.6714 35.5446L32.3785 34.8375L31.6714 34.1304ZM34.5447 31.2571L35.2518 31.9642L35.9589 31.2571L35.2518 30.5499L34.5447 31.2571ZM34.352 23.5623L35.0591 22.8552L33.352 21.1481L33.352 23.5623L34.352 23.5623ZM34.352 31.1829L33.352 31.1829L33.352 32.1829L34.352 32.1829L34.352 31.1829ZM34.5774 31.1829L34.5774 32.1829L35.577 32.1829L35.5774 31.1833L34.5774 31.1829ZM34.5803 23.5652L35.5803 23.5656L35.5807 22.5653L34.5803 22.5652L34.5803 23.5652ZM34.355 23.5652L33.6479 24.2723L33.9407 24.5652L34.3549 24.5652L34.355 23.5652ZM28.6943 23.5623L28.6943 24.5623L29.6943 24.5623L29.6943 23.5623L28.6943 23.5623ZM28.5817 23.4496L28.5816 22.4496L27.5817 22.4496L27.5817 23.4496L28.5817 23.4496ZM31.5914 34.0562L32.2985 33.3491L31.5914 32.642L30.8843 33.3491L31.5914 34.0562ZM31.5113 34.1363L30.8042 33.4292L30.0971 34.1363L30.8042 34.8434L31.5113 34.1363ZM31.5914 34.2164L30.8843 34.9235L31.5914 35.6306L32.2985 34.9235L31.5914 34.2164ZM31.6714 34.1363L32.3785 34.8434L33.0856 34.1363L32.3785 33.4292L31.6714 34.1363ZM34.4676 31.18L34.4676 30.18L32.0534 30.18L33.7605 31.8871L34.4676 31.18ZM34.5477 31.26L33.8406 31.9671L34.5477 32.6742L35.2548 31.9671L34.5477 31.26ZM34.5803 31.2274L35.2874 31.9345L35.5804 31.6416L35.5803 31.2273L34.5803 31.2274ZM34.5803 31.18L35.5803 31.1799L35.5802 30.1799L34.5803 30.18L34.5803 31.18ZM34.4647 23.5623L33.4647 23.5623L33.4647 24.5623L34.4647 24.5623L34.4647 23.5623ZM34.5773 23.5623L34.5774 24.5623L35.5773 24.5623L35.5773 23.5623L34.5773 23.5623ZM34.5773 23.4496L35.5773 23.4496L35.5774 22.4496L34.5773 22.4496L34.5773 23.4496ZM28.6943 24.675L34.4647 24.675L34.4647 22.675L28.6943 22.675L28.6943 24.675ZM35.4647 23.6749L35.4647 23.4496L33.4647 23.4496L33.4647 23.675L35.4647 23.6749ZM34.4647 22.4496L28.6943 22.4496L28.6943 24.4496L34.4647 24.4496L34.4647 22.4496ZM27.6943 23.4496L27.6943 23.6749L29.6943 23.675L29.6943 23.4496L27.6943 23.4496ZM29.807 29.7655L29.807 23.5623L27.807 23.5623L27.807 29.7655L29.807 29.7655ZM28.807 22.5623L28.5816 22.5623L28.5817 24.5623L28.807 24.5623L28.807 22.5623ZM27.5817 23.5623L27.5817 29.7655L29.5817 29.7655L29.5817 23.5623L27.5817 23.5623ZM30.4689 31.3595C30.0465 30.9371 29.8091 30.3634 29.807 29.7621L27.807 29.769C27.8109 30.8934 28.2554 31.9744 29.0547 32.7737L30.4689 31.3595ZM27.5817 29.7655C27.5817 30.9555 28.0514 32.0906 28.8916 32.9308L30.3058 31.5166C29.8413 31.0521 29.5817 30.4259 29.5817 29.7655L27.5817 29.7655ZM30.3058 32.9308L30.463 32.7737L29.0488 31.3595L28.8916 31.5166L30.3058 32.9308ZM29.7564 33.0666L29.7623 33.0666L29.7613 31.0666L29.7554 31.0666L29.7564 33.0666ZM32.3785 33.2691L30.4689 31.3595L29.0547 32.7737L30.9643 34.6833L32.3785 33.2691ZM29.0547 31.3595L28.8975 31.5166L30.3118 32.9308L30.4689 32.7737L29.0547 31.3595ZM28.8975 32.9308L30.8072 34.8404L32.2214 33.4262L30.3118 31.5166L28.8975 32.9308ZM32.2214 34.8404L32.3785 34.6833L30.9643 33.2691L30.8072 33.4262L32.2214 34.8404ZM33.6805 30.3928L30.8072 33.2661L32.2214 34.6803L35.0947 31.807L33.6805 30.3928ZM30.8072 34.6803L30.9643 34.8375L32.3785 33.4233L32.2214 33.2661L30.8072 34.6803ZM32.3785 34.8375L35.2518 31.9642L33.8376 30.5499L30.9643 33.4233L32.3785 34.8375ZM35.2518 30.5499L35.0947 30.3928L33.6805 31.807L33.8376 31.9642L35.2518 30.5499ZM33.352 23.5623L33.352 31.1829L35.352 31.1829L35.352 23.5623L33.352 23.5623ZM34.352 32.1829L34.5774 32.1829L34.5773 30.1829L34.352 30.1829L34.352 32.1829ZM35.5774 31.1833L35.5803 23.5656L33.5803 23.5649L33.5774 31.1825L35.5774 31.1833ZM34.5803 22.5652L34.355 22.5652L34.3549 24.5652L34.5803 24.5652L34.5803 22.5652ZM35.0621 22.8581L35.0591 22.8552L33.6449 24.2694L33.6479 24.2723L35.0621 22.8581ZM29.6943 23.5623L29.6943 23.4496L27.6943 23.4496L27.6943 23.5623L29.6943 23.5623ZM28.6943 22.4496L28.5816 22.4496L28.5817 24.4496L28.6943 24.4496L28.6943 22.4496ZM27.5817 23.4496L27.5817 23.5623L29.5817 23.5623L29.5817 23.4496L27.5817 23.4496ZM28.5817 24.5623L28.6943 24.5623L28.6943 22.5623L28.5816 22.5623L28.5817 24.5623ZM30.8843 33.3491L30.8042 33.4292L32.2184 34.8434L32.2985 34.7633L30.8843 33.3491ZM30.8042 34.8434L30.8843 34.9235L32.2985 33.5093L32.2184 33.4292L30.8042 34.8434ZM32.2985 34.9235L32.3785 34.8434L30.9643 33.4292L30.8843 33.5093L32.2985 34.9235ZM32.3785 33.4292L32.2985 33.3491L30.8843 34.7633L30.9643 34.8434L32.3785 33.4292ZM33.7605 31.8871L33.8406 31.9671L35.2548 30.5529L35.1747 30.4729L33.7605 31.8871ZM35.2548 31.9671L35.2874 31.9345L33.8732 30.5203L33.8406 30.5529L35.2548 31.9671ZM35.5803 31.2273L35.5803 31.1799L33.5803 31.1801L33.5803 31.2275L35.5803 31.2273ZM34.5803 30.18L34.4676 30.18L34.4676 32.18L34.5803 32.18L34.5803 30.18ZM34.4647 24.5623L34.5774 24.5623L34.5773 22.5623L34.4647 22.5623L34.4647 24.5623ZM35.5773 23.5623L35.5773 23.4496L33.5773 23.4496L33.5773 23.5623L35.5773 23.5623ZM34.5773 22.4496L34.4647 22.4496L34.4647 24.4496L34.5774 24.4496L34.5773 22.4496ZM33.4647 23.4496L33.4647 23.5623L35.4647 23.5623L35.4647 23.4496L33.4647 23.4496Z" fill="white" mask="url(#path-7-inside-2_1424_808)"/>
<path d="M24.1309 28.8066L30.1223 34.798L28.7768 36.1435C27.6581 37.2621 25.8427 37.2645 24.7217 36.1435L20.7579 32.1797L24.1309 28.8066Z" fill="white" stroke="white"/>
<path d="M38.8606 28.6493L42.2336 32.0223L38.1334 36.1225C37.0892 37.1668 35.3953 37.1668 34.3511 36.1226L32.8692 34.6406L38.8606 28.6493Z" fill="white" stroke="white"/>
</svg>
